<?xml version="1.0" encoding="UTF-8"?><!-- Generator: Adobe Illustrator 23.0.4, SVG Export Plug-In . SVG Version: 6.00 Build 0)  --><svg xmlns="http://www.w3.org/2000/svg" enable-background="new 0 0 237.2 149.8" id="Layer_1" version="1.1" viewBox="0 0 237.2 149.8" x="0px" xml:space="preserve" y="0px">
<g>
		<linearGradient gradientTransform="matrix(.7215 -.6924 .6924 .7215 -642.28 799.52)" gradientUnits="userSpaceOnUse" id="SVGID_1_" x1="1096.3" x2="993.77" y1="-47.872" y2="54.676">
		<stop offset="0" stop-color="#0E37F1"/>
		<stop offset="1" stop-color="#FE19AA"/>
	</linearGradient>
	<path d="m143.7 16.4c1-1 2.6-0.9 3.5 0.1 1 1 0.9 2.6-0.1 3.5-1 1-2.6 0.9-3.5-0.1-0.9-0.9-0.9-2.5 0.1-3.5zm-3.4-3.6c0.2-0.2 0.3-0.4 0.4-0.5-1.5-0.7-3-1.3-4.5-1.9-0.2 0.8 0 1.7 0.6 2.4 0.9 1 2.5 1 3.5 0zm3.3 10.7c-1 1-1 2.5-0.1 3.5 1 1 2.5 1 3.5 0.1s1-2.5 0.1-3.5c-0.9-1-2.5-1.1-3.5-0.1zm-6.9-7.2c-1 1-1 2.5-0.1 3.5 1 1 2.5 1 3.5 0.1s1-2.5 0.1-3.5c-0.9-1-2.5-1.1-3.5-0.1zm27.9 14.7c-1 1-1 2.5-0.1 3.5 0.5 0.5 1.1 0.8 1.7 0.8s1.3-0.2 1.8-0.7 0.8-1.1 0.8-1.7-0.2-1.3-0.7-1.8c-0.9-1-2.5-1.1-3.5-0.1zm-7-3.7c1 1 2.5 1 3.5 0.1 0.6-0.6 0.8-1.4 0.7-2.1-0.9-0.7-1.9-1.4-2.8-2.1-0.5 0.1-1 0.3-1.4 0.7-0.9 0.8-0.9 2.4 0 3.4zm3.4 7.1c1-1 1-2.5 0.1-3.5-1-1-2.5-1-3.5-0.1-1 1-1 2.5-0.1 3.5 0.9 1.1 2.5 1.1 3.5 0.1zm-10.4-10.8c-1 1-1 2.5-0.1 3.5 1 1 2.5 1 3.5 0.1 1-1 1-2.5 0.1-3.5s-2.5-1-3.5-0.1zm6.8 14.3c-1 1-1 2.5-0.1 3.5 0.5 0.5 1.1 0.8 1.7 0.8s1.3-0.2 1.8-0.7 0.8-1.1 0.8-1.7-0.2-1.3-0.7-1.8c-0.9-1-2.5-1.1-3.5-0.1zm-3.2-17.7c0.1-0.1 0.2-0.2 0.2-0.3-0.7-0.5-1.4-0.9-2.1-1.4-0.7-0.4-1.4-0.8-2.1-1.3-0.4 0.9-0.3 2 0.4 2.8 1.1 1.1 2.6 1.1 3.6 0.2zm24.2 25.2c-1 1-1 2.5-0.1 3.5 1 1 2.5 1 3.5 0.1 1-1 1-2.5 0.1-3.5s-2.5-1.1-3.5-0.1zm-3.4-3.6c1-1 1-2.5 0.1-3.5-1-1-2.5-1-3.5-0.1-1 1-1 2.5-0.1 3.5s2.5 1 3.5 0.1zm-3.6 3.4c-1 1-1 2.5-0.1 3.5 1 1 2.5 1 3.5 0.1 1-1 1-2.5 0.1-3.5-1-1-2.5-1-3.5-0.1zm8.5-2.6c-0.7-0.8-1.4-1.6-2.1-2.5 0 0.6 0.2 1.2 0.7 1.7 0.4 0.5 0.9 0.7 1.4 0.8zm-15.4-4.6c-1 1-1 2.5-0.1 3.5 1 1 2.5 1 3.5 0.1 1-1 1-2.5 0.1-3.5-1-1-2.5-1-3.5-0.1zm8.9-2.6c-0.8-0.8-1.6-1.6-2.5-2.4 0 0.6 0.2 1.2 0.7 1.7s1.1 0.7 1.8 0.7zm-2.2 16.9c-1 1-1 2.5-0.1 3.5 1 1 2.5 1 3.5 0.1 1-1 1-2.5 0.1-3.5s-2.5-1.1-3.5-0.1zm-6.9-7.2c-1 1-1 2.5-0.1 3.5 1 1 2.5 1 3.5 0.1 1-1 1-2.5 0.1-3.5s-2.5-1.1-3.5-0.1zm27.9 18.2c0.4 0.4 0.9 0.7 1.4 0.7-0.1-0.2-0.2-0.5-0.3-0.7-0.1-0.3-0.2-0.5-0.4-0.8-0.3-0.8-0.7-1.5-1.1-2.3-0.5 1-0.4 2.3 0.4 3.1zm-6.9-7.2c1 1 2.5 1 3.5 0.1 0.2-0.2 0.3-0.4 0.5-0.6-0.7-1.2-1.5-2.5-2.3-3.7-0.6 0-1.1 0.2-1.6 0.7-1.1 0.9-1.1 2.5-0.1 3.5zm3.3 7.1c1-1 1-2.5 0.1-3.5-1-1-2.5-1-3.5-0.1-1 1-1 2.5-0.1 3.5 1 1 2.5 1.1 3.5 0.1zm-10.3-10.8c-1 1-1 2.5-0.1 3.5 1 1 2.5 1 3.5 0.1 1-1 1-2.5 0.1-3.5-1-1-2.5-1-3.5-0.1zm13.8 14.4c-1 1-1 2.5-0.1 3.5 1 1 2.5 1 3.5 0.1l0.3-0.3c-0.4-1.3-0.8-2.6-1.3-3.9-0.8-0.2-1.7 0-2.4 0.6zm-0.2 7.1c-1 1-1 2.5-0.1 3.5 1 1 2.5 1 3.5 0.1s1-2.5 0.1-3.5c-0.9-1-2.5-1.1-3.5-0.1zm-69.3-57.9c-1 1-1 2.5-0.1 3.5 1 1 2.5 1 3.5 0.1 1-1 1-2.5 0.1-3.5-1-1-2.5-1.1-3.5-0.1zm-3.5-3.6c1-1 1-2.5 0.1-3.5-1-1-2.5-1-3.5-0.1-1 1-1 2.5-0.1 3.5s2.5 1.1 3.5 0.1zm-3.6 3.4c-1 1-1 2.5-0.1 3.5 1 1 2.5 1 3.5 0.1 1-1 1-2.5 0.1-3.5s-2.5-1-3.5-0.1zm7.1-3.3c1 1 2.5 1 3.5 0.1 1-1 1-2.5 0.1-3.5-1-1-2.5-1-3.5-0.1s-1 2.5-0.1 3.5zm-10.5-0.3c1-1 1-2.5 0.1-3.5-1-1-2.5-1-3.5-0.1-1 1-1 2.5-0.1 3.5 0.9 1.1 2.5 1.1 3.5 0.1zm5.7-6.2c-0.3 0-0.6-0.1-0.9-0.1 0.3 0.1 0.6 0.1 0.9 0.1zm-9.3 9.7c-1 1-1 2.5-0.1 3.5 1 1 2.5 1 3.5 0.1s1-2.5 0.1-3.5c-1-1-2.5-1.1-3.5-0.1zm27.9 14.7c-1 1-1 2.5-0.1 3.5 1 1 2.5 1 3.5 0.1 1-1 1-2.5 0.1-3.5s-2.5-1.1-3.5-0.1zm-6.9-7.2c-1 1-1 2.5-0.1 3.5 1 1 2.5 1 3.5 0.1 1-1 1-2.5 0.1-3.5s-2.5-1.1-3.5-0.1zm-0.2 7c-1 1-1 2.5-0.1 3.5 1 1 2.5 1 3.5 0.1 1-1 1-2.5 0.1-3.5s-2.5-1-3.5-0.1zm7.2-6.9c-1 1-1 2.5-0.1 3.5 1 1 2.5 1 3.5 0.1 1-1 1-2.5 0.1-3.5s-2.5-1-3.5-0.1zm-14.1-0.3c-1 1-1 2.5-0.1 3.5 1 1 2.5 1 3.5 0.1 1-1 1-2.5 0.1-3.5s-2.5-1-3.5-0.1zm7.2-6.9c-1 1-1 2.5-0.1 3.5 1 1 2.5 1 3.5 0.1 1-1 1-2.5 0.1-3.5s-2.5-1-3.5-0.1zm-0.4 21.2c-1 1-1 2.5-0.1 3.5 1 1 2.5 1 3.5 0.1 1-1 1-2.5 0.1-3.5s-2.5-1.1-3.5-0.1zm-6.9-7.2c-1 1-1 2.5-0.1 3.5 1 1 2.5 1 3.5 0.1 1-1 1-2.5 0.1-3.5s-2.5-1.1-3.5-0.1zm10.9-17.4c0.9-0.9 1-2.3 0.3-3.3-0.1 0-0.2-0.1-0.3-0.1-0.8-0.3-1.6-0.5-2.4-0.8-0.3 0.1-0.7 0.3-1 0.6-1 1-1 2.5-0.1 3.5 1 1 2.5 1 3.5 0.1zm20.8 21.6c1-1 1-2.5 0.1-3.5-1-1-2.5-1-3.5-0.1-1 1-1 2.5-0.1 3.5s2.5 1 3.5 0.1zm-10.7 3.3c-1 1-1 2.5-0.1 3.5 1 1 2.5 1 3.5 0.1 1-1 1-2.5 0.1-3.5s-2.5-1.1-3.5-0.1zm3.3 10.6c1-1 1-2.5 0.1-3.5-1-1-2.5-1-3.5-0.1-1 1-1 2.5-0.1 3.5 0.9 1.1 2.5 1.1 3.5 0.1zm3.8-10.5c-1 1-1 2.5-0.1 3.5 1 1 2.5 1 3.5 0.1 1-1 1-2.5 0.1-3.5-1-1-2.6-1-3.5-0.1zm-10.7 3.3c1-1 1-2.5 0.1-3.5-1-1-2.5-1-3.5-0.1-1 1-1 2.5-0.1 3.5 0.9 1.1 2.5 1.1 3.5 0.1zm3.7-10.5c-1 1-1 2.5-0.1 3.5 1 1 2.5 1 3.5 0.1s1-2.5 0.1-3.5c-0.9-1-2.5-1-3.5-0.1zm-0.4 21.2c-1 1-1 2.5-0.1 3.5 0.5 0.5 1.1 0.8 1.7 0.8s1.3-0.2 1.8-0.7 0.8-1.1 0.8-1.7-0.2-1.3-0.7-1.8c-0.9-1-2.5-1.1-3.5-0.1zm-6.9-7.2c-1 1-1 2.5-0.1 3.5 1 1 2.5 1 3.5 0.1 1-1 1-2.5 0.1-3.5s-2.5-1.1-3.5-0.1zm27.9 14.7c-1 1-1 2.5-0.1 3.5 1 1 2.5 1 3.5 0.1 1-1 1-2.5 0.1-3.5s-2.5-1.1-3.5-0.1zm-3.4-3.6c1-1 1-2.5 0.1-3.5-1-1-2.5-1-3.5-0.1-1 1-1 2.5-0.1 3.5s2.5 1 3.5 0.1zm-0.2 7c1-1 1-2.5 0.1-3.5-1-1-2.5-1-3.5-0.1-1 1-1 2.5-0.1 3.5 1 1.1 2.5 1.1 3.5 0.1zm7.2-6.9c1-1 1-2.5 0.1-3.5-1-1-2.5-1-3.5-0.1-1 1-1 2.5-0.1 3.5 1 1.1 2.5 1.1 3.5 0.1zm-17.5-3.9c-1 1-1 2.5-0.1 3.5 1 1 2.5 1 3.5 0.1 1-1 1-2.5 0.1-3.5-1-1-2.5-1-3.5-0.1zm7.2-6.9c-1 1-1 2.5-0.1 3.5 1 1 2.5 1 3.5 0.1 1-1 1-2.5 0.1-3.5-1-1-2.5-1-3.5-0.1zm-0.5 21.2c-1 1-1 2.5-0.1 3.5 1 1 2.5 1 3.5 0.1 1-1 1-2.5 0.1-3.5s-2.5-1.1-3.5-0.1zm-3.1-17.7c0.5-0.5 0.8-1.1 0.8-1.7s-0.2-1.3-0.7-1.8c-1-1-2.5-1-3.5-0.1-1 1-1 2.5-0.1 3.5 0.5 0.5 1.1 0.8 1.7 0.8s1.3-0.2 1.8-0.7zm24.1 25.2c-1 1-1 2.5-0.1 3.5 1 1 2.5 1 3.5 0.1 1-1 1-2.5 0.1-3.5s-2.5-1.1-3.5-0.1zm3.8-10.5c1-1 1-2.5 0.1-3.5-1-1-2.5-1-3.5-0.1-1 1-1 2.5-0.1 3.5s2.5 1 3.5 0.1zm-7.2 6.9c1-1 1-2.5 0.1-3.5-1-1-2.5-1-3.5-0.1-1 1-1 2.5-0.1 3.5s2.5 1 3.5 0.1zm-0.2 7c1-1 1-2.5 0.1-3.5-1-1-2.5-1-3.5-0.1-1 1-1 2.5-0.1 3.5 1 1.1 2.5 1.1 3.5 0.1zm3.8-10.5c-1 1-1 2.5-0.1 3.5 1 1 2.5 1 3.5 0.1 1-1 1-2.5 0.1-3.5s-2.5-1-3.5-0.1zm-14.1-0.3c-1 1-1 2.5-0.1 3.5 1 1 2.5 1 3.5 0.1 1-1 1-2.5 0.1-3.5s-2.5-1-3.5-0.1zm10.6-3.3c1-1 1-2.5 0.1-3.5-1-1-2.5-1-3.5-0.1-1 1-1 2.5-0.1 3.5 1 1.1 2.5 1.1 3.5 0.1zm17.2 25.1c-0.5 0.5-0.8 1.1-0.8 1.7s0.2 1.3 0.7 1.8c0.6 0.6 1.4 0.9 2.2 0.7 0.3-0.1 0.6-0.2 0.9-0.3 0.1 0 0.1-0.1 0.2-0.1 0.4-0.8 0.7-1.5 1-2.3-0.1-0.5-0.3-1-0.7-1.4-0.5-0.5-1.1-0.8-1.7-0.8-0.7 0-1.3 0.2-1.8 0.7zm-3.5-3.6c1-1 1-2.5 0.1-3.5-1-1-2.5-1-3.5-0.1-1 1-1 2.5-0.1 3.5s2.5 1 3.5 0.1zm-0.1 7c1-1 1-2.5 0.1-3.5-1-1-2.5-1-3.5-0.1-1 1-1 2.5-0.1 3.5 0.9 1.1 2.5 1.1 3.5 0.1zm3.7-10.5c-1 1-1 2.5-0.1 3.5 1 1 2.5 1 3.5 0.1 1-1 1-2.5 0.1-3.5s-2.5-1-3.5-0.1zm-14.1-0.3c-1 1-1 2.5-0.1 3.5 1 1 2.5 1 3.5 0.1 1-1 1-2.5 0.1-3.5s-2.5-1-3.5-0.1zm10.6-3.3c1-1 1-2.5 0.1-3.5-1-1-2.5-1-3.5-0.1-1 1-1 2.5-0.1 3.5 1 1.1 2.6 1.1 3.5 0.1zm-3.8 17.6c-0.5 0.5-0.8 1.1-0.8 1.7s0.2 1.3 0.7 1.8c0.6 0.6 1.4 0.9 2.2 0.7 0.3-0.1 0.6-0.2 0.9-0.3 0.1-0.1 0.3-0.2 0.4-0.3s0.2-0.2 0.3-0.4c0.2-0.3 0.3-0.6 0.4-0.9 0.2-0.8 0-1.6-0.6-2.3-0.5-0.5-1.1-0.8-1.7-0.8s-1.3 0.3-1.8 0.8zm4-24.6c1-1 1-2.5 0.1-3.5-1-1-2.5-1-3.5-0.1s-1 2.5-0.1 3.5c0.9 1 2.5 1 3.5 0.1zm2.5 27.6c0.9-1.1 1.8-2.3 2.5-3.5-0.7-0.1-1.4 0.1-2 0.7-0.8 0.7-0.9 1.8-0.5 2.8zm-100.2-79c1-1 1-2.5 0.1-3.5-1-1-2.5-1-3.5-0.1-1 1-1 2.5-0.1 3.5s2.5 1 3.5 0.1zm7.2-6.9c0.9-0.9 1-2.4 0.2-3.4-1.5 0.6-2.9 1.2-4.4 2 0.1 0.5 0.3 0.9 0.7 1.3 0.9 1 2.5 1 3.5 0.1zm-13.6 5.2c-0.4 0.3-0.8 0.7-1.2 1-0.4 0.4-0.8 0.8-1.2 1.1 0.6 0 1.2-0.2 1.7-0.7 0.4-0.3 0.7-0.8 0.7-1.4zm23.8 12.6c-1 1-1 2.5-0.1 3.5 1 1 2.5 1 3.5 0.1 1-1 1-2.5 0.1-3.5-1-1-2.5-1-3.5-0.1zm-6.9-7.2c-1 1-1 2.5-0.1 3.5 1 1 2.5 1 3.5 0.1 1-1 1-2.5 0.1-3.5-1-1-2.5-1-3.5-0.1zm-0.2 7.1c-1 1-1 2.5-0.1 3.5 1 1 2.5 1 3.5 0.1 1-1 1-2.5 0.1-3.5-0.9-1.1-2.5-1.1-3.5-0.1zm7.2-6.9c-1 1-1 2.5-0.1 3.5 1 1 2.5 1 3.5 0.1s1-2.5 0.1-3.5c-0.9-1.1-2.5-1.1-3.5-0.1zm-14.1-0.3c-1 1-1 2.5-0.1 3.5 1 1 2.5 1 3.5 0.1 1-1 1-2.5 0.1-3.5-0.9-1.1-2.5-1.1-3.5-0.1zm7.2-6.9c-1 1-1 2.5-0.1 3.5 1 1 2.5 1 3.5 0.1 1-1 1-2.5 0.1-3.5-0.9-1.1-2.5-1.1-3.5-0.1zm-0.4 21.1c-1 1-1 2.5-0.1 3.5 1 1 2.5 1 3.5 0.1s1-2.5 0.1-3.5c-1-1-2.5-1-3.5-0.1zm-6.9-7.2c-1 1-1 2.5-0.1 3.5 1 1 2.5 1 3.5 0.1 1-1 1-2.5 0.1-3.5-1-1-2.5-1-3.5-0.1zm10.9-17.4c1-1 1-2.5 0.1-3.5-1-1-2.5-1-3.5-0.1s-1 2.5-0.1 3.5c0.9 1 2.5 1.1 3.5 0.1zm-7.2 6.9c1-1 1-2.5 0.1-3.5-1-1-2.5-1-3.5-0.1-1 1-1 2.5-0.1 3.5s2.5 1.1 3.5 0.1zm24.2 25.2c-1 1-1 2.5-0.1 3.5 1 1 2.5 1 3.5 0.1 1-1 1-2.5 0.1-3.5s-2.5-1-3.5-0.1zm-6.9-7.2c-1 1-1 2.5-0.1 3.5 1 1 2.5 1 3.5 0.1 1-1 1-2.5 0.1-3.5s-2.5-1-3.5-0.1zm3.3 10.7c1-1 1-2.5 0.1-3.5-1-1-2.5-1-3.5-0.1-1 1-1 2.5-0.1 3.5s2.5 1 3.5 0.1zm3.7-10.5c-1 1-1 2.5-0.1 3.5 1 1 2.5 1 3.5 0.1 1-1 1-2.5 0.1-3.5-0.9-1.1-2.5-1.1-3.5-0.1zm-14.1-0.3c-1 1-1 2.5-0.1 3.5 1 1 2.5 1 3.5 0.1 1-1 1-2.5 0.1-3.5-0.9-1.1-2.5-1.1-3.5-0.1zm7.2-6.9c-1 1-1 2.5-0.1 3.5 1 1 2.5 1 3.5 0.1 1-1 1-2.5 0.1-3.5-0.9-1.1-2.5-1.1-3.5-0.1zm-0.4 21.1c-1 1-1 2.5-0.1 3.5 1 1 2.5 1 3.5 0.1 1-1 1-2.5 0.1-3.5s-2.5-1-3.5-0.1zm4-24.6c1-1 1-2.5 0.1-3.5-1-1-2.5-1-3.5-0.1-1 1-1 2.5-0.1 3.5 1 1 2.5 1.1 3.5 0.1zm13.6 28.5c1-1 1-2.5 0.1-3.5-1-1-2.5-1-3.5-0.1-1 1-1 2.5-0.1 3.5s2.5 1.1 3.5 0.1zm-0.2 7.1c1-1 1-2.5 0.1-3.5-1-1-2.5-1-3.5-0.1-1 1-1 2.5-0.1 3.5s2.5 1 3.5 0.1zm3.8-10.5c-1 1-1 2.5-0.1 3.5 1 1 2.5 1 3.5 0.1s1-2.5 0.1-3.5c-1-1.1-2.6-1.1-3.5-0.1zm-14.2-0.3c-1 1-1 2.5-0.1 3.5 1 1 2.5 1 3.5 0.1 1-1 1-2.5 0.1-3.5-0.9-1.1-2.5-1.1-3.5-0.1zm7.2-6.9c-1 1-1 2.5-0.1 3.5 1 1 2.5 1 3.5 0.1 1-1 1-2.5 0.1-3.5-0.9-1.1-2.5-1.1-3.5-0.1zm-7.3 13.9c-1 1-1 2.5-0.1 3.5 1 1 2.5 1 3.5 0.1s1-2.5 0.1-3.5c-0.9-1-2.5-1-3.5-0.1zm31.7 4.2c1-1 1-2.5 0.1-3.5-1-1-2.5-1-3.5-0.1-1 1-1 2.5-0.1 3.5s2.5 1.1 3.5 0.1zm-7.2 6.9c1-1 1-2.5 0.1-3.5-1-1-2.5-1-3.5-0.1-1 1-1 2.5-0.1 3.5s2.5 1.1 3.5 0.1zm-0.2 7.1c1-1 1-2.5 0.1-3.5-1-1-2.5-1-3.5-0.1-1 1-1 2.5-0.1 3.5 1 1 2.5 1 3.5 0.1zm7.2-6.9c1-1 1-2.5 0.1-3.5-1-1-2.5-1-3.5-0.1s-1 2.5-0.1 3.5c1 1 2.5 1 3.5 0.1zm-14.1-0.3c1-1 1-2.5 0.1-3.5-1-1-2.5-1-3.5-0.1-1 1-1 2.5-0.1 3.5s2.5 1 3.5 0.1zm3.8-10.5c-1 1-1 2.5-0.1 3.5 1 1 2.5 1 3.5 0.1 1-1 1-2.5 0.1-3.5-1-1.1-2.5-1.1-3.5-0.1zm-3.6 3.4c0.5-0.5 0.8-1.1 0.8-1.7s-0.2-1.3-0.7-1.8c-1-1-2.5-1-3.5-0.1-1 1-1 2.5-0.1 3.5 0.5 0.5 1.1 0.8 1.7 0.8s1.3-0.2 1.8-0.7zm24.1 25.2c-1 1-1 2.5-0.1 3.5 1 1 2.5 1 3.5 0.1 1-1 1-2.5 0.1-3.5s-2.5-1-3.5-0.1zm3.8-10.5c1-1 1-2.5 0.1-3.5-1-1-2.5-1-3.5-0.1-1 1-1 2.5-0.1 3.5s2.5 1.1 3.5 0.1zm-7.2 6.9c1-1 1-2.5 0.1-3.5-1-1-2.5-1-3.5-0.1-1 1-1 2.5-0.1 3.5s2.5 1.1 3.5 0.1zm-0.2 7.1c1-1 1-2.5 0.1-3.5-1-1-2.5-1-3.5-0.1-1 1-1 2.5-0.1 3.5 1 1 2.5 1 3.5 0.1zm7.2-6.9c1-1 1-2.5 0.1-3.5-1-1-2.5-1-3.5-0.1-1 1-1 2.5-0.1 3.5 1 1 2.5 1 3.5 0.1zm-17.5-3.9c-1 1-1 2.5-0.1 3.5 1 1 2.5 1 3.5 0.1 1-1 1-2.5 0.1-3.5-0.9-1.1-2.5-1.1-3.5-0.1zm10.6-3.3c1-1 1-2.5 0.1-3.5-1-1-2.5-1-3.5-0.1-1 1-1 2.5-0.1 3.5 1 1 2.5 1 3.5 0.1zm-7-0.2c1-1 1-2.5 0.1-3.5-1-1-2.5-1-3.5-0.1-1 1-1 2.5-0.1 3.5s2.5 1.1 3.5 0.1zm24.2 25.2c-0.5 0.5-0.8 1.1-0.8 1.7s0.2 1.3 0.7 1.8c0.6 0.6 1.4 0.9 2.2 0.7 0.3-0.1 0.6-0.2 0.9-0.3 0.1-0.1 0.3-0.2 0.4-0.3s0.2-0.2 0.3-0.4c0.2-0.3 0.3-0.6 0.4-0.9 0.2-0.8 0-1.6-0.6-2.3-0.5-0.5-1.1-0.8-1.7-0.8-0.7 0.1-1.3 0.3-1.8 0.8zm3.7-10.5c1-1 1-2.5 0.1-3.5-1-1-2.5-1-3.5-0.1-1 1-1 2.5-0.1 3.5s2.5 1.1 3.5 0.1zm-7.2 6.9c1-1 1-2.5 0.1-3.5-1-1-2.5-1-3.5-0.1-1 1-1 2.5-0.1 3.5s2.5 1.1 3.5 0.1zm-3.6 3.5c-1 1-1 2.5-0.1 3.5 1 1 2.5 1 3.5 0.1 1-1 1-2.5 0.1-3.5-0.9-1.1-2.5-1.1-3.5-0.1zm10.7-3.3c1-1 1-2.5 0.1-3.5-1-1-2.5-1-3.5-0.1-1 1-1 2.5-0.1 3.5s2.5 1 3.5 0.1zm-14.2-0.3c1-1 1-2.5 0.1-3.5-1-1-2.5-1-3.5-0.1-1 1-1 2.5-0.1 3.5 1 1 2.6 1 3.5 0.1zm7.3-6.9c1-1 1-2.5 0.1-3.5-1-1-2.5-1-3.5-0.1s-1 2.5-0.1 3.5c0.9 1 2.5 1 3.5 0.1zm-3.9 17.5c-0.5 0.5-0.8 1.1-0.8 1.7 0 0.4 0.1 0.7 0.2 1.1 0.7-0.2 1.3-0.5 1.9-0.7 0.1-0.1 0.3-0.1 0.4-0.2 0.8-0.3 1.5-0.6 2.2-0.9-0.1-0.3-0.3-0.6-0.6-0.9-0.5-0.5-1.1-0.8-1.7-0.8-0.5 0-1.1 0.2-1.6 0.7zm4-24.6c1-1 1-2.5 0.1-3.5-1-1-2.5-1-3.5-0.1-1 1-1 2.5-0.1 3.5s2.5 1.1 3.5 0.1zm10.2 17.9c-0.7 0.7-0.9 1.6-0.7 2.5 1.3-0.9 2.5-1.8 3.6-2.8-0.8-0.6-2.1-0.5-2.9 0.3zm-107-78c-0.7 0.7-1.5 1.5-2.2 2.3 0.5-0.1 1-0.3 1.4-0.7 0.5-0.4 0.7-1 0.8-1.6zm-0.9 8.7c1-1 1-2.5 0.1-3.5-1-1-2.5-1-3.5-0.1-1 1-1 2.5-0.1 3.5s2.5 1 3.5 0.1zm7.2-6.9c1-1 1-2.5 0.1-3.5-1-1-2.5-1-3.5-0.1-1 1-1 2.5-0.1 3.5s2.5 1 3.5 0.1zm10.2 17.8c-1 1-1 2.5-0.1 3.5 1 1 2.5 1 3.5 0.1 1-1 1-2.5 0.1-3.5-1-1-2.5-1-3.5-0.1zm-6.9-7.2c-1 1-1 2.5-0.1 3.5 1 1 2.5 1 3.5 0.1 1-1 1-2.5 0.1-3.5-1-1-2.5-1-3.5-0.1zm-0.2 7.1c-1 1-1 2.5-0.1 3.5 1 1 2.5 1 3.5 0.1 1-1 1-2.5 0.1-3.5s-2.5-1.1-3.5-0.1zm10.7-3.3c1-1 1-2.5 0.1-3.5-1-1-2.5-1-3.5-0.1-1 1-1 2.5-0.1 3.5s2.5 1 3.5 0.1zm-17.6-3.9c-1 1-1 2.5-0.1 3.5 1 1 2.5 1 3.5 0.1 1-1 1-2.5 0.1-3.5s-2.5-1.1-3.5-0.1zm7.2-6.9c-1 1-1 2.5-0.1 3.5 1 1 2.5 1 3.5 0.1s1-2.5 0.1-3.5c-0.9-1-2.5-1.1-3.5-0.1zm-0.4 21.1c-1 1-1 2.5-0.1 3.5 1 1 2.5 1 3.5 0.1 1-1 1-2.5 0.1-3.5-1-1-2.5-1-3.5-0.1zm-6.9-7.2c-1 1-1 2.5-0.1 3.5 1 1 2.5 1 3.5 0.1 1-1 1-2.5 0.1-3.5-1-1-2.5-1-3.5-0.1zm10.9-17.4c1-1 1-2.5 0.1-3.5-1-1-2.5-1-3.5-0.1-1 1-1 2.5-0.1 3.5s2.5 1.1 3.5 0.1zm-7.2 6.9c1-1 1-2.5 0.1-3.5-1-1-2.5-1-3.5-0.1-1 1-1 2.5-0.1 3.5 0.9 1.1 2.5 1.1 3.5 0.1zm24.2 25.2c-1 1-1 2.5-0.1 3.5 1 1 2.5 1 3.5 0.1 1-1 1-2.5 0.1-3.5s-2.5-1-3.5-0.1zm3.7-10.5c1-1 1-2.5 0.1-3.5-1-1-2.5-1-3.5-0.1-1 1-1 2.5-0.1 3.5 1 1 2.5 1.1 3.5 0.1zm-10.6 3.3c-1 1-1 2.5-0.1 3.5 1 1 2.5 1 3.5 0.1 1-1 1-2.5 0.1-3.5s-2.5-1-3.5-0.1zm3.3 10.7c1-1 1-2.5 0.1-3.5-1-1-2.5-1-3.5-0.1-1 1-1 2.5-0.1 3.5s2.5 1 3.5 0.1zm3.7-10.5c-1 1-1 2.5-0.1 3.5 1 1 2.5 1 3.5 0.1 1-1 1-2.5 0.1-3.5s-2.5-1.1-3.5-0.1zm-14.1-0.3c-1 1-1 2.5-0.1 3.5 1 1 2.5 1 3.5 0.1 1-1 1-2.5 0.1-3.5s-2.5-1.1-3.5-0.1zm7.2-6.9c-1 1-1 2.5-0.1 3.5 1 1 2.5 1 3.5 0.1 1-1 1-2.5 0.1-3.5s-2.5-1.1-3.5-0.1zm-0.4 21.1c-1 1-1 2.5-0.1 3.5 1 1 2.5 1 3.5 0.1 1-1 1-2.5 0.1-3.5s-2.5-1-3.5-0.1zm17.6 3.9c1-1 1-2.5 0.1-3.5-1-1-2.5-1-3.5-0.1-1 1-1 2.5-0.1 3.5s2.5 1.1 3.5 0.1zm-0.2 7.1c1-1 1-2.5 0.1-3.5-1-1-2.5-1-3.5-0.1-1 1-1 2.5-0.1 3.5s2.5 1 3.5 0.1zm3.8-10.5c-1 1-1 2.5-0.1 3.5 1 1 2.5 1 3.5 0.1 1-1 1-2.5 0.1-3.5-1-1-2.6-1.1-3.5-0.1zm-14.2-0.3c-1 1-1 2.5-0.1 3.5 1 1 2.5 1 3.5 0.1 1-1 1-2.5 0.1-3.5s-2.5-1.1-3.5-0.1zm7.2-6.9c-1 1-1 2.5-0.1 3.5 1 1 2.5 1 3.5 0.1 1-1 1-2.5 0.1-3.5s-2.5-1.1-3.5-0.1zm-7.3 13.9c-1 1-1 2.5-0.1 3.5 1 1 2.5 1 3.5 0.1 1-1 1-2.5 0.1-3.5s-2.5-1-3.5-0.1zm27.9 14.7c-1 1-1 2.5-0.1 3.5 1 1 2.5 1 3.5 0.1 1-1 1-2.5 0.1-3.5s-2.5-1-3.5-0.1zm3.8-10.5c1-1 1-2.5 0.1-3.5-1-1-2.5-1-3.5-0.1-1 1-1 2.5-0.1 3.5s2.5 1.1 3.5 0.1zm-7.2 6.9c1-1 1-2.5 0.1-3.5-1-1-2.5-1-3.5-0.1-1 1-1 2.5-0.1 3.5s2.5 1.1 3.5 0.1zm-0.2 7.1c1-1 1-2.5 0.1-3.5-1-1-2.5-1-3.5-0.1-1 1-1 2.5-0.1 3.5 1 1 2.5 1 3.5 0.1zm7.2-6.9c1-1 1-2.5 0.1-3.5-1-1-2.5-1-3.5-0.1-1 1-1 2.5-0.1 3.5 1 1 2.5 1 3.5 0.1zm-17.5-3.9c-1 1-1 2.5-0.1 3.5 1 1 2.5 1 3.5 0.1 1-1 1-2.5 0.1-3.5-1-1-2.5-1.1-3.5-0.1zm10.6-3.3c1-1 1-2.5 0.1-3.5-1-1-2.5-1-3.5-0.1-1 1-1 2.5-0.1 3.5s2.5 1 3.5 0.1zm0.2-7.1c0.5-0.5 0.8-1.1 0.8-1.7s-0.2-1.3-0.7-1.8c-1-1-2.5-1-3.5-0.1-1 1-1 2.5-0.1 3.5 0.5 0.5 1.1 0.8 1.7 0.8s1.3-0.2 1.8-0.7zm-7.2 6.9c0.5-0.5 0.8-1.1 0.8-1.7s-0.2-1.3-0.7-1.8c-1-1-2.5-1-3.5-0.1-1 1-1 2.5-0.1 3.5 0.5 0.5 1.1 0.8 1.7 0.8s1.3-0.2 1.8-0.7zm27.9 14.7c1-1 1-2.5 0.1-3.5-1-1-2.5-1-3.5-0.1-1 1-1 2.5-0.1 3.5s2.5 1.1 3.5 0.1zm-7.2 6.9c1-1 1-2.5 0.1-3.5-1-1-2.5-1-3.5-0.1-1 1-1 2.5-0.1 3.5s2.5 1.1 3.5 0.1zm-0.2 7.1c1-1 1-2.5 0.1-3.5-1-1-2.5-1-3.5-0.1-1 1-1 2.5-0.1 3.5 1 1 2.5 1 3.5 0.1zm3.8-10.5c-1 1-1 2.5-0.1 3.5 1 1 2.5 1 3.5 0.1s1-2.5 0.1-3.5c-0.9-1.1-2.5-1.1-3.5-0.1zm-10.7 3.3c1-1 1-2.5 0.1-3.5-1-1-2.5-1-3.5-0.1-1 1-1 2.5-0.1 3.5 1 1 2.5 1 3.5 0.1zm7.2-6.9c1-1 1-2.5 0.1-3.5-1-1-2.5-1-3.5-0.1s-1 2.5-0.1 3.5c1 1 2.5 1 3.5 0.1zm0.2-7.1c1-1 1-2.5 0.1-3.5-1-1-2.5-1-3.5-0.1-1 1-1 2.5-0.1 3.5s2.5 1.1 3.5 0.1zm20.7 21.6c1-1 1-2.5 0.1-3.5-1-1-2.5-1-3.5-0.1-1 1-1 2.5-0.1 3.5s2.5 1.1 3.5 0.1zm-10.7 3.3c-1 1-1 2.5-0.1 3.5 1 1 2.5 1 3.5 0.1 1-1 1-2.5 0.1-3.5s-2.5-1-3.5-0.1zm-0.1 7.1c0.8-0.2 1.6-0.4 2.5-0.6-0.9-0.3-1.8-0.1-2.5 0.6zm7.2-6.9c-1 1-1 2.5-0.1 3.5 1 1 2.5 1 3.5 0.1 1-1 1-2.5 0.1-3.5-0.9-1.1-2.5-1.1-3.5-0.1zm-10.6-0.2c-1-1-2.5-1-3.5-0.1-1 1-1 2.5-0.1 3.5 1 1 2.5 1 3.5 0.1 1-1 1.1-2.6 0.1-3.5zm7.2-3.4c1-1 1-2.5 0.1-3.5-1-1-2.5-1-3.5-0.1-1 1-1 2.5-0.1 3.5s2.5 1 3.5 0.1zm-10.8 10.3c-0.5 0.4-0.7 1-0.7 1.6 0.7-0.1 1.3-0.2 2-0.3 0.9-0.2 1.9-0.3 2.8-0.5-0.1-0.2-0.3-0.5-0.5-0.7-1.1-1-2.7-1-3.6-0.1zm10.9-17.4c1-1 1-2.5 0.1-3.5-1-1-2.5-1-3.5-0.1-1 1-1 2.5-0.1 3.5s2.5 1.1 3.5 0.1zm-7.2 6.9c1-1 1-2.5 0.1-3.5-1-1-2.5-1-3.5-0.1-1 1-1 2.5-0.1 3.5s2.5 1.1 3.5 0.1zm-7.1 3.4c-1-1-2.5-1-3.5-0.1-1 1-1 2.5-0.1 3.5 1 1 2.5 1 3.5 0.1s1-2.5 0.1-3.5zm-83.4-61.7c1-1 1-2.5 0.1-3.5-0.2-0.2-0.4-0.3-0.6-0.5-1 1.3-2 2.6-2.9 4 0.8 0.9 2.4 0.9 3.4 0zm7.2-6.9c1-1 1-2.5 0.1-3.5-0.6-0.6-1.4-0.8-2.2-0.7-0.7 0.9-1.4 1.7-2.1 2.6 0 0.6 0.3 1.1 0.7 1.6 0.9 0.9 2.5 0.9 3.5 0zm10.2 17.8c-1 1-1 2.5-0.1 3.5 1 1 2.5 1 3.5 0.1 1-1 1-2.5 0.1-3.5-1-1-2.5-1-3.5-0.1zm-6.9-7.2c-1 1-1 2.5-0.1 3.5 1 1 2.5 1 3.5 0.1 1-1 1-2.5 0.1-3.5-1-1-2.5-1-3.5-0.1zm-0.2 7.1c-1 1-1 2.5-0.1 3.5 1 1 2.5 1 3.5 0.1 1-1 1-2.5 0.1-3.5s-2.5-1.1-3.5-0.1zm10.7-3.3c1-1 1-2.5 0.1-3.5-1-1-2.5-1-3.5-0.1-1 1-1 2.5-0.1 3.5s2.5 1 3.5 0.1zm-17.6-3.9c-1 1-1 2.5-0.1 3.5 1 1 2.5 1 3.5 0.1 1-1 1-2.5 0.1-3.5s-2.5-1.1-3.5-0.1zm7.2-6.9c-1 1-1 2.5-0.1 3.5 1 1 2.5 1 3.5 0.1 1-1 1-2.5 0.1-3.5s-2.5-1.1-3.5-0.1zm-7.3 14c-1 1-1 2.5-0.1 3.5 1 1 2.5 1 3.5 0.1 0.5-0.5 0.8-1.1 0.8-1.7s-0.2-1.3-0.7-1.8-1.1-0.8-1.7-0.8-1.3 0.2-1.8 0.7zm10.9-17.5c1-1 1-2.5 0.1-3.5-1-1-2.5-1-3.5-0.1-1 1-1 2.5-0.1 3.5 0.9 1.1 2.5 1.1 3.5 0.1zm-7.2 6.9c1-1 1-2.5 0.1-3.5-1-1-2.5-1-3.5-0.1-1 1-1 2.5-0.1 3.5 0.9 1.1 2.5 1.1 3.5 0.1zm27.9 14.7c1-1 1-2.5 0.1-3.5-1-1-2.5-1-3.5-0.1-1 1-1 2.5-0.1 3.5 1 1.1 2.5 1.1 3.5 0.1zm-10.6 3.3c-1 1-1 2.5-0.1 3.5 1 1 2.5 1 3.5 0.1 1-1 1-2.5 0.1-3.5s-2.5-1-3.5-0.1zm-0.2 7.1c-1 1-1 2.5-0.1 3.5 1 1 2.5 1 3.5 0.1 1-1 1-2.5 0.1-3.5s-2.5-1.1-3.5-0.1zm7.2-6.9c-1 1-1 2.5-0.1 3.5 1 1 2.5 1 3.5 0.1 1-1 1-2.5 0.1-3.5s-2.5-1.1-3.5-0.1zm-10.6 3.3c1-1 1-2.5 0.1-3.5-1-1-2.5-1-3.5-0.1-1 1-1 2.5-0.1 3.5s2.5 1.1 3.5 0.1zm3.7-10.5c-1 1-1 2.5-0.1 3.5 1 1 2.5 1 3.5 0.1 1-1 1-2.5 0.1-3.5s-2.5-1.1-3.5-0.1zm-0.4 21.2c-1 1-1 2.5-0.1 3.5 1 1 2.5 1 3.5 0.1 0.5-0.5 0.8-1.1 0.8-1.7s-0.2-1.3-0.7-1.8-1.1-0.8-1.7-0.8c-0.7-0.1-1.3 0.2-1.8 0.7zm-6.9-7.2c-1 1-1 2.5-0.1 3.5 1 1 2.5 1 3.5 0.1 0.5-0.5 0.8-1.1 0.8-1.7s-0.2-1.3-0.7-1.8-1.1-0.8-1.7-0.8c-0.7-0.1-1.3 0.2-1.8 0.7zm24.5 11c1-1 1-2.5 0.1-3.5-1-1-2.5-1-3.5-0.1-1 1-1 2.5-0.1 3.5 0.9 1.1 2.5 1.1 3.5 0.1zm-0.2 7.1c1-1 1-2.5 0.1-3.5-1-1-2.5-1-3.5-0.1-1 1-1 2.5-0.1 3.5s2.5 1.1 3.5 0.1zm7.2-6.9c1-1 1-2.5 0.1-3.5-1-1-2.5-1-3.5-0.1-1 1-1 2.5-0.1 3.5s2.5 1 3.5 0.1zm-17.6-3.9c-1 1-1 2.5-0.1 3.5 1 1 2.5 1 3.5 0.1 1-1 1-2.5 0.1-3.5s-2.5-1.1-3.5-0.1zm7.2-6.9c-1 1-1 2.5-0.1 3.5 1 1 2.5 1 3.5 0.1 1-1 1-2.5 0.1-3.5s-2.5-1.1-3.5-0.1zm-3.6 3.4c1-1 1-2.5 0.1-3.5-1-1-2.5-1-3.5-0.1-1 1-1 2.5-0.1 3.5 1 1.1 2.6 1.1 3.5 0.1zm28 14.7c1-1 1-2.5 0.1-3.5-1-1-2.5-1-3.5-0.1-1 1-1 2.5-0.1 3.5 0.9 1.1 2.5 1.1 3.5 0.1zm-7.2 6.9c1-1 1-2.5 0.1-3.5-1-1-2.5-1-3.5-0.1-1 1-1 2.5-0.1 3.5 0.9 1.1 2.5 1.1 3.5 0.1zm-3.6 3.5c-1 1-1 2.5-0.1 3.5 1 1 2.5 1 3.5 0.1 1-1 1-2.5 0.1-3.5-1-1-2.5-1.1-3.5-0.1zm10.6-3.3c1-1 1-2.5 0.1-3.5-1-1-2.5-1-3.5-0.1-1 1-1 2.5-0.1 3.5 1 1 2.5 1 3.5 0.1zm-14.1-0.3c1-1 1-2.5 0.1-3.5-1-1-2.5-1-3.5-0.1-1 1-1 2.5-0.1 3.5s2.5 1.1 3.5 0.1zm7.2-6.9c1-1 1-2.5 0.1-3.5-1-1-2.5-1-3.5-0.1-1 1-1 2.5-0.1 3.5s2.5 1 3.5 0.1zm0.2-7.1c0.5-0.5 0.8-1.1 0.8-1.7s-0.2-1.3-0.7-1.8c-1-1-2.5-1-3.5-0.1s-1 2.5-0.1 3.5c0.5 0.5 1.1 0.8 1.7 0.8s1.3-0.2 1.8-0.7zm-7.2 6.9c0.5-0.5 0.8-1.1 0.8-1.7s-0.2-1.3-0.7-1.8c-1-1-2.5-1-3.5-0.1-1 1-1 2.5-0.1 3.5 0.5 0.5 1.1 0.8 1.7 0.8 0.6 0.1 1.3-0.2 1.8-0.7zm24.1 25.2c-1 0.9-1 2.5-0.1 3.5h0.1c0.4 0 0.9-0.1 1.3-0.1 0.9-0.1 1.7-0.2 2.5-0.2 0.6-0.9 0.5-2.2-0.3-3-0.9-1.1-2.5-1.1-3.5-0.2zm3.8-10.5c1-1 1-2.5 0.1-3.5-1-1-2.5-1-3.5-0.1s-1 2.5-0.1 3.5c0.9 1.1 2.5 1.1 3.5 0.1zm-7.2 6.9c1-1 1-2.5 0.1-3.5-1-1-2.5-1-3.5-0.1-1 1-1 2.5-0.1 3.5 0.9 1.1 2.5 1.1 3.5 0.1zm-3.6 3.5c-1 1-1 2.5-0.1 3.5 1 1 2.5 1 3.5 0.1 1-1 1-2.5 0.1-3.5s-2.5-1.1-3.5-0.1zm10.6-3.3c1-1 1-2.5 0.1-3.5-1-1-2.5-1-3.5-0.1-1 1-1 2.5-0.1 3.5 1 1 2.5 1 3.5 0.1zm-14.1-0.3c1-1 1-2.5 0.1-3.5-1-1-2.5-1-3.5-0.1-1 1-1 2.5-0.1 3.5 1 1 2.5 1.1 3.5 0.1zm7.2-6.9c1-1 1-2.5 0.1-3.5-1-1-2.5-1-3.5-0.1-1 1-1 2.5-0.1 3.5 1 1 2.5 1 3.5 0.1zm-9 9.7c-0.6 0-1.3 0.2-1.8 0.7-1 1-1 2.5-0.1 3.5 1 1 2.5 1 3.5 0.1 0.5-0.5 0.8-1.1 0.8-1.7s-0.2-1.3-0.7-1.8c-0.4-0.6-1-0.8-1.7-0.8zm9.2-16.8c1-1 1-2.5 0.1-3.5-1-1-2.5-1-3.5-0.1-1 1-1 2.5-0.1 3.5 0.9 1.1 2.5 1.1 3.5 0.1zm-7.2 6.9c1-1 1-2.5 0.1-3.5-1-1-2.5-1-3.5-0.1-1 1-1 2.5-0.1 3.5 0.9 1.1 2.5 1.1 3.5 0.1zm17.4 11c-0.7 0.7-0.9 1.8-0.6 2.7l4.8-0.6c0.1-0.7-0.1-1.4-0.7-2-0.9-1-2.5-1.1-3.5-0.1zm-86.3-64.3c-0.7 1-1.4 2.1-2.1 3.2 0.5-0.1 1-0.3 1.4-0.7 0.8-0.7 1-1.6 0.7-2.5zm2.7 13.2c-1 1-1 2.5-0.1 3.5 1 1 2.5 1 3.5 0.1 1-1 1-2.5 0.1-3.5-1-1.1-2.5-1.1-3.5-0.1zm-0.2 7c-1 1-1 2.5-0.1 3.5 1 1 2.5 1 3.5 0.1 1-1 1-2.5 0.1-3.5s-2.5-1-3.5-0.1zm7.2-6.9c-1 1-1 2.5-0.1 3.5 1 1 2.5 1 3.5 0.1s1-2.5 0.1-3.5c-0.9-1-2.5-1-3.5-0.1zm-10.6 3.3c1-1 1-2.5 0.1-3.5-1-1-2.5-1-3.5-0.1-1 1-1 2.5-0.1 3.5s2.5 1.1 3.5 0.1zm7.2-6.9c1-1 1-2.5 0.1-3.5-1-1-2.5-1-3.5-0.1-1 1-1 2.5-0.1 3.5s2.5 1.1 3.5 0.1zm-10.8 10.4c-1 1-1 2.5-0.1 3.5 1 1 2.5 1 3.5 0.1 1-1 1-2.5 0.1-3.5-1-1-2.5-1.1-3.5-0.1zm10.9-17.4c0.5-0.5 0.8-1.1 0.8-1.7s-0.2-1.3-0.7-1.8-1.1-0.8-1.7-0.8-1.3 0.2-1.8 0.7c-1 1-1 2.5-0.1 3.5s2.5 1 3.5 0.1zm-7.2 6.9c1-1 1-2.5 0.1-3.5-0.8-0.8-1.9-1-2.9-0.5-0.5 0.8-1 1.5-1.4 2.3 0 0.6 0.2 1.2 0.7 1.7 0.9 0.9 2.5 0.9 3.5 0zm24.2 25.2c-1 1-1 2.5-0.1 3.5 1 1 2.5 1 3.5 0.1 1-1 1-2.5 0.1-3.5-0.9-1.1-2.5-1.1-3.5-0.1zm-6.9-7.2c-1 1-1 2.5-0.1 3.5 1 1 2.5 1 3.5 0.1 1-1 1-2.5 0.1-3.5-0.9-1.1-2.5-1.1-3.5-0.1zm-0.2 7c-1 1-1 2.5-0.1 3.5 1 1 2.5 1 3.5 0.1 1-1 1-2.5 0.1-3.5s-2.5-1-3.5-0.1zm10.7-3.3c1-1 1-2.5 0.1-3.5-1-1-2.5-1-3.5-0.1-1 1-1 2.5-0.1 3.5s2.5 1.1 3.5 0.1zm-17.6-3.9c-1 1-1 2.5-0.1 3.5 1 1 2.5 1 3.5 0.1 1-1 1-2.5 0.1-3.5s-2.5-1-3.5-0.1zm7.2-6.9c-1 1-1 2.5-0.1 3.5 1 1 2.5 1 3.5 0.1 1-1 1-2.5 0.1-3.5s-2.5-1-3.5-0.1zm-7.3 14c-1 1-1 2.5-0.1 3.5 1 1 2.5 1 3.5 0.1 1-1 1-2.5 0.1-3.5-0.9-1.1-2.5-1.1-3.5-0.1zm10.9-17.4c0.5-0.5 0.8-1.1 0.8-1.7s-0.2-1.3-0.7-1.8-1.1-0.8-1.7-0.8-1.3 0.2-1.8 0.7c-1 1-1 2.5-0.1 3.5 1 1 2.5 1 3.5 0.1zm-7.2 6.9c1-1 1-2.5 0.1-3.5-1-1-2.5-1-3.5-0.1-1 1-1 2.5-0.1 3.5 1 1 2.5 1 3.5 0.1zm28 14.7c0.5-0.5 0.8-1.1 0.8-1.7s-0.2-1.3-0.7-1.8-1.1-0.8-1.7-0.8-1.3 0.2-1.8 0.7c-1 1-1 2.5-0.1 3.5s2.5 1 3.5 0.1zm-7.2 6.9c1-1 1-2.5 0.1-3.5-1-1-2.5-1-3.5-0.1-1 1-1 2.5-0.1 3.5s2.5 1 3.5 0.1zm-0.2 7c1-1 1-2.5 0.1-3.5-1-1-2.5-1-3.5-0.1-1 1-1 2.5-0.1 3.5s2.5 1.1 3.5 0.1zm7.2-6.9c1-1 1-2.5 0.1-3.5-1-1-2.5-1-3.5-0.1-1 1-1 2.5-0.1 3.5s2.5 1.1 3.5 0.1zm-14.1-0.3c1-1 1-2.5 0.1-3.5-1-1-2.5-1-3.5-0.1-1 1-1 2.5-0.1 3.5s2.5 1.1 3.5 0.1zm3.7-10.5c-1 1-1 2.5-0.1 3.5 1 1 2.5 1 3.5 0.1s1-2.5 0.1-3.5c-0.9-1-2.5-1-3.5-0.1zm-7.3 14c-1 1-1 2.5-0.1 3.5 1 1 2.5 1 3.5 0.1s1-2.5 0.1-3.5c-0.9-1.1-2.5-1.1-3.5-0.1zm31.7 4.2c0.5-0.5 0.8-1.1 0.8-1.7s-0.2-1.3-0.7-1.8-1.1-0.8-1.7-0.8-1.3 0.2-1.8 0.7c-1 1-1 2.5-0.1 3.5s2.5 1 3.5 0.1zm-7.2 6.9c1-1 1-2.5 0.1-3.5-1-1-2.5-1-3.5-0.1-1 1-1 2.5-0.1 3.5s2.5 1 3.5 0.1zm-0.2 7c1-1 1-2.5 0.1-3.5-1-1-2.5-1-3.5-0.1-1 1-1 2.5-0.1 3.5 1 1 2.5 1.1 3.5 0.1zm7.2-6.9c1-1 1-2.5 0.1-3.5-1-1-2.5-1-3.5-0.1-1 1-1 2.5-0.1 3.5 1 1 2.5 1.1 3.5 0.1zm-17.5-3.9c-1 1-1 2.5-0.1 3.5 1 1 2.5 1 3.5 0.1 1-1 1-2.5 0.1-3.5-1-1-2.5-1-3.5-0.1zm10.6-3.3c1-1 1-2.5 0.1-3.5-1-1-2.5-1-3.5-0.1s-1 2.5-0.1 3.5c0.9 1 2.5 1.1 3.5 0.1zm-3.9 17.6c-1 1-1 2.5-0.1 3.5 1 1 2.5 1 3.5 0.1s1-2.5 0.1-3.5c-0.9-1.1-2.5-1.1-3.5-0.1zm4.1-24.6c0.5-0.5 0.8-1.1 0.8-1.7s-0.2-1.3-0.7-1.8-1.1-0.8-1.7-0.8-1.3 0.2-1.8 0.7c-1 1-1 2.5-0.1 3.5 0.5 0.5 1.1 0.8 1.7 0.8s1.3-0.3 1.8-0.7zm-7.2 6.9c0.5-0.5 0.8-1.1 0.8-1.7s-0.2-1.3-0.7-1.8c-1-1-2.5-1-3.5-0.1-1 1-1 2.5-0.1 3.5 0.5 0.5 1.1 0.8 1.7 0.8s1.3-0.3 1.8-0.7zm17.2 18c-0.9 0.9-1 2.2-0.3 3.2 1.5-0.7 3-1.3 4.5-1.9-0.1-0.4-0.3-0.9-0.6-1.2-1-1.1-2.6-1.1-3.6-0.1zm7.1 0.1s-0.1 0.1 0 0c0.7-0.2 1.4-0.4 2.1-0.7-0.7-0.1-1.5 0.1-2.1 0.7zm-14.1-0.3c-1 1-1 2.5-0.1 3.5 1 1 2.5 1 3.5 0.1 1-1 1-2.5 0.1-3.5s-2.5-1-3.5-0.1zm10.7-6.8c-1-1-2.5-1-3.5-0.1-1 1-1 2.5-0.1 3.5 1 1 2.5 1 3.5 0.1s1.1-2.5 0.1-3.5zm0.1-3.5c0.5-0.5 0.8-1.1 0.8-1.7s-0.2-1.3-0.7-1.8-1.1-0.8-1.7-0.8-1.3 0.2-1.8 0.7c-1 1-1 2.5-0.1 3.5s2.5 1 3.5 0.1zm-7.2 6.9c1-1 1-2.5 0.1-3.5-1-1-2.5-1-3.5-0.1-1 1-1 2.5-0.1 3.5s2.5 1 3.5 0.1zm-59.3-33c-1 1-1 2.5-0.1 3.5 1 1 2.5 1 3.5 0.1 1-1 1-2.5 0.1-3.5s-2.5-1.1-3.5-0.1zm-3.5-3.6c1-1 1-2.5 0.1-3.5-1-1-2.5-1-3.5-0.1-1 1-1 2.5-0.1 3.5s2.5 1 3.5 0.1zm-0.1 7c1-1 1-2.5 0.1-3.5-1-1-2.5-1-3.5-0.1-1 1-1 2.5-0.1 3.5 0.9 1.1 2.5 1.1 3.5 0.1zm3.7-10.5c-1 1-1 2.5-0.1 3.5 1 1 2.5 1 3.5 0.1 1-1 1-2.5 0.1-3.5s-2.5-1-3.5-0.1zm-10.4 0c-0.6 1.3-1.2 2.7-1.7 4 0.5-0.1 1.1-0.3 1.5-0.7 0.9-0.9 1-2.3 0.2-3.3zm7-3.6c1-1 1-2.5 0.1-3.5-1-1-2.5-1-3.5-0.1-0.1 0.1-0.2 0.2-0.3 0.4l-0.3 0.6c-0.3 0.9-0.1 1.9 0.5 2.6 0.9 0.9 2.5 1 3.5 0zm-3.9 17.6c-0.4 0.4-0.6 0.8-0.7 1.3-0.2 0.8 0 1.6 0.6 2.3 0.6 0.6 1.4 0.9 2.2 0.7 0.5-0.1 0.9-0.3 1.3-0.7 1-1 1-2.5 0.1-3.5s-2.5-1.1-3.5-0.1zm4-24.6c1-1 1-2.5 0.1-3.5h-0.1c0 0.1-0.1 0.1-0.1 0.2-0.4 0.7-0.8 1.4-1.1 2.1-0.3 0.6-0.7 1.3-1 1.9 0.7 0.1 1.6-0.1 2.2-0.7zm17 32.1c-1 1-1 2.5-0.1 3.5 1 1 2.5 1 3.5 0.1 1-1 1-2.5 0.1-3.5s-2.5-1.1-3.5-0.1zm-3.5-3.6c1-1 1-2.5 0.1-3.5-1-1-2.5-1-3.5-0.1-1 1-1 2.5-0.1 3.5 1 1 2.5 1 3.5 0.1zm-3.6 3.4c-1 1-1 2.5-0.1 3.5 1 1 2.5 1 3.5 0.1 1-1 1-2.5 0.1-3.5s-2.5-1-3.5-0.1zm7.2-6.9c-1 1-1 2.5-0.1 3.5 1 1 2.5 1 3.5 0.1 1-1 1-2.5 0.1-3.5s-2.5-1-3.5-0.1zm-14.1-0.3c-1 1-1 2.5-0.1 3.5 1 1 2.5 1 3.5 0.1 1-1 1-2.5 0.1-3.5s-2.5-1-3.5-0.1zm10.7-3.3c1-1 1-2.5 0.1-3.5-1-1-2.5-1-3.5-0.1-1 1-1 2.5-0.1 3.5s2.5 1.1 3.5 0.1zm-3.9 17.6c-0.4 0.4-0.6 0.8-0.7 1.3-0.2 0.8 0 1.6 0.6 2.3 0.6 0.6 1.4 0.9 2.2 0.7 0.5-0.1 0.9-0.3 1.3-0.7 1-1 1-2.5 0.1-3.5s-2.5-1.1-3.5-0.1zm4-24.6c1-1 1-2.5 0.1-3.5-1-1-2.5-1-3.5-0.1-1 1-1 2.5-0.1 3.5 1 1 2.5 1 3.5 0.1zm10.1 24.9c-1 1-1 2.5-0.1 3.5 1 1 2.5 1 3.5 0.1 1-1 1-2.5 0.1-3.5s-2.5-1.1-3.5-0.1zm3.3 10.6c1-1 1-2.5 0.1-3.5-1-1-2.5-1-3.5-0.1-1 1-1 2.5-0.1 3.5 0.9 1.1 2.5 1.1 3.5 0.1zm7.2-6.9c1-1 1-2.5 0.1-3.5-1-1-2.5-1-3.5-0.1-1 1-1 2.5-0.1 3.5s2.5 1.1 3.5 0.1zm-17.6-3.9c-1 1-1 2.5-0.1 3.5 1 1 2.5 1 3.5 0.1 1-1 1-2.5 0.1-3.5s-2.5-1-3.5-0.1zm10.7-3.3c1-1 1-2.5 0.1-3.5-1-1-2.5-1-3.5-0.1s-1 2.5-0.1 3.5c0.9 1 2.5 1.1 3.5 0.1zm0.1-7c1-1 1-2.5 0.1-3.5-1-1-2.5-1-3.5-0.1s-1 2.5-0.1 3.5c1 1 2.6 1 3.5 0.1zm17 32.1c-1 1-1 2.5-0.1 3.5 1 1 2.5 1 3.5 0.1 1-1 1-2.5 0.1-3.5s-2.5-1.1-3.5-0.1zm3.8-10.5c1-1 1-2.5 0.1-3.5-1-1-2.5-1-3.5-0.1-1 1-1 2.5-0.1 3.5s2.5 1 3.5 0.1zm-7.2 6.9c1-1 1-2.5 0.1-3.5-1-1-2.5-1-3.5-0.1-1 1-1 2.5-0.1 3.5s2.5 1 3.5 0.1zm-0.2 7c1-1 1-2.5 0.1-3.5-1-1-2.5-1-3.5-0.1-1 1-1 2.5-0.1 3.5 1 1.1 2.5 1.1 3.5 0.1zm7.2-6.9c1-1 1-2.5 0.1-3.5-1-1-2.5-1-3.5-0.1-1 1-1 2.5-0.1 3.5 1 1 2.5 1.1 3.5 0.1zm-17.5-3.9c-1 1-1 2.5-0.1 3.5 1 1 2.5 1 3.5 0.1 1-1 1-2.5 0.1-3.5-1-1-2.5-1-3.5-0.1zm7.2-6.9c-1 1-1 2.5-0.1 3.5 1 1 2.5 1 3.5 0.1 1-1 1-2.5 0.1-3.5-1-1-2.5-1-3.5-0.1zm-0.5 21.2c-0.4 0.4-0.6 0.8-0.7 1.3-0.2 0.8 0 1.6 0.6 2.3 0.6 0.6 1.4 0.9 2.2 0.7 0.1 0 0.2-0.1 0.3-0.1 0.3-0.2 0.6-0.4 1-0.6 1-1 1-2.5 0.1-3.5s-2.5-1.1-3.5-0.1zm4.1-24.6c0.5-0.5 0.8-1.1 0.8-1.7s-0.2-1.3-0.7-1.8c-1-1-2.5-1-3.5-0.1-1 1-1 2.5-0.1 3.5 0.5 0.5 1.1 0.8 1.7 0.8s1.3-0.3 1.8-0.7zm-7.2 6.9c0.5-0.5 0.8-1.1 0.8-1.7s-0.2-1.3-0.7-1.8c-1-1-2.5-1-3.5-0.1-1 1-1 2.5-0.1 3.5 0.5 0.5 1.1 0.8 1.7 0.8s1.3-0.2 1.8-0.7zm10.2 17.8c-0.5 0.5-0.8 1.1-0.8 1.8 1.2-0.7 2.4-1.4 3.6-2.2-0.9-0.4-2-0.3-2.8 0.4zm7.2-6.9c-1 1-1 2.5-0.1 3.5 0.1 0.1 0.2 0.2 0.3 0.2 1.3-0.8 2.6-1.5 4-2.3-0.1-0.5-0.3-1-0.7-1.4-0.9-0.9-2.5-0.9-3.5 0zm-60.5-39.4c0.5-0.1 0.9-0.3 1.3-0.7 1-1 1-2.5 0.1-3.5-0.6-0.6-1.4-0.9-2.2-0.7-0.2 0.5-0.4 1-0.5 1.4-0.3 0.9-0.6 1.7-0.9 2.6l0.1 0.1c0.5 0.7 1.3 1 2.1 0.8zm-5.5 10.5c-0.2 1-0.4 2-0.6 2.9l0.1-0.1c0.8-0.7 0.9-1.9 0.5-2.8zm6.7-4.1c1-1 1-2.5 0.1-3.5-1-1-2.5-1-3.5-0.1-1 1-1 2.5-0.1 3.5 0.9 1.1 2.5 1.1 3.5 0.1zm12.6 8c0.5-0.1 0.9-0.3 1.3-0.7 1-1 1-2.5 0.1-3.5-1-1-2.5-1-3.5-0.1-0.4 0.4-0.6 0.8-0.7 1.3-0.2 0.8 0 1.6 0.6 2.3 0.6 0.6 1.4 0.9 2.2 0.7zm-9.3 2.7c-1 1-1 2.5-0.1 3.5 1 1 2.5 1 3.5 0.1 1-1 1-2.5 0.1-3.5s-2.5-1.1-3.5-0.1zm-0.2 7.1c-1 1-1 2.5-0.1 3.5 1 1 2.5 1 3.5 0.1 1-1 1-2.5 0.1-3.5-0.9-1.1-2.5-1.1-3.5-0.1zm10.7-3.4c1-1 1-2.5 0.1-3.5-1-1-2.5-1-3.5-0.1-1 1-1 2.5-0.1 3.5 0.9 1.1 2.5 1.1 3.5 0.1zm-14.1-0.2c1-1 1-2.5 0.1-3.5-1-1-2.5-1-3.5-0.1-1 1-1 2.5-0.1 3.5s2.5 1 3.5 0.1zm3.7-10.6c-1 1-1 2.5-0.1 3.5 1 1 2.5 1 3.5 0.1 1-1 1-2.5 0.1-3.5s-2.5-1-3.5-0.1zm-0.4 21.2c-1 1-1 2.5-0.1 3.5 1 1 2.5 1 3.5 0.1s1-2.5 0.1-3.5c-0.9-1-2.5-1-3.5-0.1zm-3.2-17.7c1-1 1-2.5 0.1-3.5-1-1-2.5-1-3.5-0.1-1 1-1 2.5-0.1 3.5 1 1 2.5 1.1 3.5 0.1zm-7.1 3.4c-0.1-0.2-0.3-0.3-0.5-0.4 0 0.3-0.1 0.7-0.1 1-0.1 0.7-0.2 1.4-0.2 2.1 0 0.5-0.1 0.9-0.1 1.4 0.3-0.1 0.6-0.3 0.9-0.5 0.9-1 1-2.6 0-3.6zm33.8 11.9c0.5-0.1 0.9-0.3 1.3-0.7 1-1 1-2.5 0.1-3.5-1-1-2.5-1-3.5-0.1-0.4 0.4-0.6 0.8-0.7 1.3-0.2 0.8 0 1.6 0.6 2.3 0.5 0.6 1.4 0.9 2.2 0.7zm-5.9 6.3c1-1 1-2.5 0.1-3.5-1-1-2.5-1-3.5-0.1-1 1-1 2.5-0.1 3.5s2.5 1.1 3.5 0.1zm-3.6 3.5c-1 1-1 2.5-0.1 3.5 1 1 2.5 1 3.5 0.1 1-1 1-2.5 0.1-3.5-1-1.1-2.5-1.1-3.5-0.1zm10.6-3.4c1-1 1-2.5 0.1-3.5-1-1-2.5-1-3.5-0.1s-1 2.5-0.1 3.5c0.9 1.1 2.5 1.1 3.5 0.1zm-17.6-3.8c-1 1-1 2.5-0.1 3.5 1 1 2.5 1 3.5 0.1 1-1 1-2.5 0.1-3.5-0.9-1.1-2.5-1.1-3.5-0.1zm7.2-7c-1 1-1 2.5-0.1 3.5 1 1 2.5 1 3.5 0.1 1-1 1-2.5 0.1-3.5s-2.5-1-3.5-0.1zm-3.6 3.5c1-1 1-2.5 0.1-3.5-1-1-2.5-1-3.5-0.1-1 1-1 2.5-0.1 3.5 1 1 2.6 1.1 3.5 0.1zm24.2 25.2c-0.8 0.8-1 1.9-0.5 2.8l2.4-1.2c0.7-0.3 1.3-0.7 2-1.1-0.1-0.2-0.2-0.3-0.4-0.5-0.9-0.9-2.5-1-3.5 0zm2.5-9.9c0.5-0.1 0.9-0.3 1.3-0.7 1-1 1-2.5 0.1-3.5-1-1-2.5-1-3.5-0.1-0.4 0.4-0.6 0.8-0.7 1.3-0.2 0.8 0 1.6 0.6 2.3 0.5 0.6 1.4 0.9 2.2 0.7zm-5.9 6.3c1-1 1-2.5 0.1-3.5-1-1-2.5-1-3.5-0.1-1 1-1 2.5-0.1 3.5s2.5 1.1 3.5 0.1zm-3.6 3.5c-1 1-1 2.5-0.1 3.5 1 1 2.5 1 3.5 0.1 1-1 1-2.5 0.1-3.5-1-1.1-2.5-1.1-3.5-0.1zm7.2-7c-1 1-1 2.5-0.1 3.5 1 1 2.5 1 3.5 0.1 1-1 1-2.5 0.1-3.5-1-1-2.5-1-3.5-0.1zm-10.7 3.4c1-1 1-2.5 0.1-3.5-1-1-2.5-1-3.5-0.1-1 1-1 2.5-0.1 3.5s2.5 1 3.5 0.1zm7.2-7c1-1 1-2.5 0.1-3.5-1-1-2.5-1-3.5-0.1-1 1-1 2.5-0.1 3.5 0.9 1.1 2.5 1.1 3.5 0.1zm-10.8 10.4c-1 1-1 2.5-0.1 3.5 1 1 2.5 1 3.5 0.1s1-2.5 0.1-3.5c-0.9-1-2.5-1.1-3.5-0.1zm9.7-16.8c0.5-0.1 0.9-0.3 1.3-0.7 0.5-0.5 0.8-1.1 0.8-1.7s-0.2-1.3-0.7-1.8c-1-1-2.5-1-3.5-0.1-0.4 0.4-0.6 0.8-0.7 1.3-0.2 0.8 0 1.6 0.6 2.3 0.5 0.5 1.1 0.8 1.7 0.8 0.1 0 0.3 0 0.5-0.1zm-5.9 6.3c0.5-0.5 0.8-1.1 0.8-1.7s-0.2-1.3-0.7-1.8c-1-1-2.5-1-3.5-0.1-1 1-1 2.5-0.1 3.5 0.5 0.5 1.1 0.8 1.7 0.8s1.3-0.2 1.8-0.7zm-28-14.7c1-1 1-2.5 0.1-3.5-1-1-2.5-1-3.5-0.1-1 1-1 2.5-0.1 3.5 1 1 2.5 1.1 3.5 0.1zm-7.1 3.4c-0.2-0.2-0.4-0.3-0.6-0.4 0.1 1.3 0.3 2.6 0.6 3.9 0.9-1 0.9-2.6 0-3.5zm7 3.7c1-1 1-2.5 0.1-3.5-1-1-2.5-1-3.5-0.1-1 1-1 2.5-0.1 3.5s2.5 1 3.5 0.1zm-6.8-10.8c-0.3-0.3-0.6-0.5-0.9-0.6-0.1 1.6 0 3.1 0 4.7 0.3-0.1 0.6-0.3 0.8-0.5 1-1 1-2.6 0.1-3.6zm20.8 18.1c1-1 1-2.5 0.1-3.5-1-1-2.5-1-3.5-0.1-1 1-1 2.5-0.1 3.5s2.5 1.1 3.5 0.1zm-10.7 3.3c-1 1-1 2.5-0.1 3.5 1 1 2.5 1 3.5 0.1 1-1 1-2.5 0.1-3.5s-2.5-1-3.5-0.1zm3.4 7.1c-1-1-2.5-1-3.5-0.1-0.2 0.2-0.3 0.3-0.4 0.5 1.2 1.2 2.5 2.3 3.7 3.2l0.1-0.1c1-0.9 1-2.5 0.1-3.5zm7.1-3.3c1-1 1-2.5 0.1-3.5-1-1-2.5-1-3.5-0.1s-1 2.5-0.1 3.5c0.9 1 2.5 1 3.5 0.1zm-14-3.9c-0.8-0.9-2.1-1-3.1-0.4 0.8 1.5 1.7 2.9 2.7 4.2l0.3-0.3c1-0.9 1-2.5 0.1-3.5zm3.6-6.9c-1 1-1 2.5-0.1 3.5 1 1 2.5 1 3.5 0.1 1-1 1-2.5 0.1-3.5-0.9-1.1-2.5-1.1-3.5-0.1zm-3.6 3.4c1-1 1-2.5 0.1-3.5-1-1-2.5-1-3.5-0.1-1 1-1 2.5-0.1 3.5 1 1 2.6 1.1 3.5 0.1zm17.3 18c-0.2 0.2-0.4 0.5-0.5 0.8 1.5 0.3 3.1 0.4 4.6 0.3-0.1-0.4-0.3-0.7-0.6-1-0.9-1-2.5-1-3.5-0.1zm7.1 0.2c-0.2 0.2-0.4 0.5-0.5 0.8 1.3-0.2 2.6-0.4 4-0.8-1-1-2.6-1-3.5 0zm-12.8-1c0.8 0.3 1.5 0.6 2.3 0.9l-0.1-0.1c-0.6-0.7-1.4-0.9-2.2-0.8zm9.4-6.2c-1-1-2.5-1-3.5-0.1-1 1-1 2.5-0.1 3.5 1 1 2.5 1 3.5 0.1s1-2.5 0.1-3.5zm0.1-3.5c0.5-0.5 0.8-1.1 0.8-1.7s-0.2-1.3-0.7-1.8c-1-1-2.5-1-3.5-0.1-1 1-1 2.5-0.1 3.5 0.5 0.5 1.1 0.8 1.7 0.8s1.3-0.2 1.8-0.7zm-6.5 5.2c0-0.6-0.2-1.3-0.7-1.8-1-1-2.5-1-3.5-0.1-1 1-1 2.5-0.1 3.5 0.5 0.5 1.1 0.8 1.7 0.8s1.3-0.2 1.8-0.7c0.6-0.5 0.8-1.1 0.8-1.7z" fill="url(#SVGID_1_)"/>
	<linearGradient gradientUnits="userSpaceOnUse" id="SVGID_2_" x1="52.302" x2="237.24" y1="64.92" y2="64.92">
		<stop offset="0" stop-color="#0E37F1"/>
		<stop offset="1" stop-color="#FE19AA"/>
	</linearGradient>
	<path d="m52.4 85.1c-3.6 18.4 95.7 69.6 146.8 30.2s50.5-99.8 0-113.1-43.5 38.9-73.1 54-67.9-0.7-73.7 28.9z" fill="url(#SVGID_2_)"/>
		<linearGradient gradientTransform="matrix(-.5 .866 -.866 -.5 3294.3 -156.56)" gradientUnits="userSpaceOnUse" id="SVGID_3_" x1="1789.8" x2="1789.8" y1="2770.1" y2="2510.6">
		<stop offset="0" stop-color="#0E37F1"/>
		<stop offset="1" stop-color="#FE19AA"/>
	</linearGradient>
	<path d="m0.4 8.4c0.8-1.4 2.6-1.8 4-1l219.7 126.8c1.4 0.8 1.9 2.6 1.1 4s-2.6 1.9-4 1.1l-219.7-126.9c-1.4-0.8-1.9-2.6-1.1-4z" fill="url(#SVGID_3_)"/>
</g>
</svg>