<?xml version="1.0" encoding="UTF-8"?><!-- Generator: Adobe Illustrator 23.0.4, SVG Export Plug-In . SVG Version: 6.00 Build 0)  --><svg xmlns="http://www.w3.org/2000/svg" enable-background="new 0 0 285.3 220.3" id="Layer_1" version="1.1" viewBox="0 0 285.3 220.3" x="0px" xml:space="preserve" y="0px">
<g>
	<linearGradient gradientUnits="userSpaceOnUse" id="SVGID_1_" x1="53.831" x2="238.77" y1="129.23" y2="129.23">
		<stop offset="0" stop-color="#0E37F1"/>
		<stop offset="1" stop-color="#FE19AA"/>
	</linearGradient>
	<path d="m53.9 149.4c-3.6 18.4 95.7 69.6 146.8 30.2s50.5-99.8 0-113.1-43.5 38.9-73.1 54-67.9-0.7-73.7 28.9z" fill="url(#SVGID_1_)"/>
	<linearGradient gradientUnits="userSpaceOnUse" id="SVGID_2_" x1="147.28" x2="44.73" y1="90.758" y2="193.31">
		<stop offset="0" stop-color="#0E37F1"/>
		<stop offset="1" stop-color="#FE19AA"/>
	</linearGradient>
	<path d="m160.3 117.8c1.4 0 2.5 1.1 2.5 2.5s-1.1 2.5-2.5 2.5-2.5-1.1-2.5-2.5 1.1-2.5 2.5-2.5zm0-5c0.2 0 0.5 0 0.7-0.1-0.6-1.5-1.3-3-2-4.5-0.7 0.4-1.2 1.2-1.2 2.1 0 1.4 1.1 2.5 2.5 2.5zm-5 10c-1.4 0-2.5 1.1-2.5 2.5s1.1 2.5 2.5 2.5 2.5-1.1 2.5-2.5c0-1.4-1.1-2.5-2.5-2.5zm0-10c-1.4 0-2.5 1.1-2.5 2.5s1.1 2.5 2.5 2.5 2.5-1.1 2.5-2.5c0-1.4-1.1-2.5-2.5-2.5zm10 30c-1.4 0-2.5 1.1-2.5 2.5 0 0.7 0.3 1.3 0.7 1.8 0.5 0.5 1.1 0.7 1.8 0.7s1.3-0.3 1.8-0.7c0.5-0.5 0.7-1.1 0.7-1.8 0-1.4-1.1-2.5-2.5-2.5zm-2.5-7.5c0 1.4 1.1 2.5 2.5 2.5 0.8 0 1.6-0.4 2-1-0.2-1.2-0.4-2.3-0.6-3.5-0.4-0.3-0.9-0.5-1.5-0.5-1.3 0-2.4 1.1-2.4 2.5zm-2.5 7.5c1.4 0 2.5-1.1 2.5-2.5s-1.1-2.5-2.5-2.5-2.5 1.1-2.5 2.5 1.1 2.5 2.5 2.5zm0-15c-1.4 0-2.5 1.1-2.5 2.5s1.1 2.5 2.5 2.5 2.5-1.1 2.5-2.5-1.1-2.5-2.5-2.5zm-5 15c-1.4 0-2.5 1.1-2.5 2.5 0 0.7 0.3 1.3 0.7 1.8 0.5 0.5 1.1 0.7 1.8 0.7s1.3-0.3 1.8-0.7c0.5-0.5 0.7-1.1 0.7-1.8 0-1.4-1.1-2.5-2.5-2.5zm10-15h0.3c-0.2-0.8-0.4-1.6-0.6-2.5-0.2-0.8-0.4-1.6-0.6-2.3-0.9 0.4-1.6 1.3-1.6 2.3 0 1.4 1.1 2.5 2.5 2.5zm0 34.9c-1.4 0-2.5 1.1-2.5 2.5s1.1 2.5 2.5 2.5 2.5-1.1 2.5-2.5-1.1-2.5-2.5-2.5zm0-5c1.4 0 2.5-1.1 2.5-2.5s-1.1-2.5-2.5-2.5-2.5 1.1-2.5 2.5 1.1 2.5 2.5 2.5zm-5 0c-1.4 0-2.5 1.1-2.5 2.5s1.1 2.5 2.5 2.5 2.5-1.1 2.5-2.5c0-1.3-1.1-2.5-2.5-2.5zm8 4.1c0.1-1.1 0.1-2.2 0.2-3.3-0.4 0.4-0.7 1.1-0.7 1.7s0.2 1.1 0.5 1.6zm-8-14c-1.4 0-2.5 1.1-2.5 2.5s1.1 2.5 2.5 2.5 2.5-1.1 2.5-2.5-1.1-2.5-2.5-2.5zm8.2 4.2c0-1.1-0.1-2.3-0.1-3.5-0.4 0.4-0.7 1-0.7 1.7 0.1 0.8 0.4 1.4 0.8 1.8zm-13.2 10.7c-1.4 0-2.5 1.1-2.5 2.5s1.1 2.5 2.5 2.5 2.5-1.1 2.5-2.5c0-1.4-1.1-2.5-2.5-2.5zm0-10c-1.4 0-2.5 1.1-2.5 2.5s1.1 2.5 2.5 2.5 2.5-1.1 2.5-2.5c0-1.3-1.1-2.5-2.5-2.5zm7.5 32.5c0 0.6 0.2 1.1 0.5 1.5 0.1-0.2 0.2-0.5 0.3-0.7 0.1-0.3 0.2-0.5 0.3-0.8 0.3-0.8 0.5-1.6 0.8-2.4-1.1 0.3-1.9 1.2-1.9 2.4zm0-10c0 1.4 1.1 2.5 2.5 2.5 0.3 0 0.5-0.1 0.7-0.1l0.9-4.2c-0.4-0.4-1-0.6-1.6-0.6-1.4-0.1-2.5 1-2.5 2.4zm-2.5 7.5c1.4 0 2.5-1.1 2.5-2.5s-1.1-2.5-2.5-2.5-2.5 1.1-2.5 2.5 1.1 2.5 2.5 2.5zm0-15c-1.4 0-2.5 1.1-2.5 2.5s1.1 2.5 2.5 2.5 2.5-1.1 2.5-2.5-1.1-2.5-2.5-2.5zm0 20c-1.4 0-2.5 1.1-2.5 2.5s1.1 2.5 2.5 2.5h0.4c0.6-1.2 1.2-2.4 1.7-3.7-0.4-0.8-1.2-1.3-2.1-1.3zm-5 5c-1.4 0-2.5 1.1-2.5 2.5s1.1 2.5 2.5 2.5 2.5-1.1 2.5-2.5c0-1.4-1.1-2.5-2.5-2.5zm-10-89.8c-1.4 0-2.5 1.1-2.5 2.5s1.1 2.5 2.5 2.5 2.5-1.1 2.5-2.5-1.1-2.5-2.5-2.5zm0-5c1.4 0 2.5-1.1 2.5-2.5s-1.1-2.5-2.5-2.5-2.5 1.1-2.5 2.5c0 1.3 1.1 2.5 2.5 2.5zm-5 0c-1.4 0-2.5 1.1-2.5 2.5s1.1 2.5 2.5 2.5 2.5-1.1 2.5-2.5-1.1-2.5-2.5-2.5zm7.5 2.5c0 1.4 1.1 2.5 2.5 2.5s2.5-1.1 2.5-2.5-1.1-2.5-2.5-2.5-2.5 1.1-2.5 2.5zm-7.5-7.5c1.4 0 2.5-1.1 2.5-2.5s-1.1-2.5-2.5-2.5-2.5 1.1-2.5 2.5 1.2 2.5 2.5 2.5zm8.5-0.5c-0.2-0.2-0.4-0.5-0.6-0.7 0.1 0.2 0.4 0.5 0.6 0.7zm-13.5 0.5c-1.4 0-2.5 1.1-2.5 2.5s1.1 2.5 2.5 2.5 2.5-1.1 2.5-2.5-1.1-2.5-2.5-2.5zm10 29.9c-1.4 0-2.5 1.1-2.5 2.5s1.1 2.5 2.5 2.5 2.5-1.1 2.5-2.5-1.1-2.5-2.5-2.5zm0-10c-1.4 0-2.5 1.1-2.5 2.5s1.1 2.5 2.5 2.5 2.5-1.1 2.5-2.5-1.1-2.5-2.5-2.5zm-5 5c-1.4 0-2.5 1.1-2.5 2.5s1.1 2.5 2.5 2.5 2.5-1.1 2.5-2.5-1.1-2.5-2.5-2.5zm10 0c-1.4 0-2.5 1.1-2.5 2.5s1.1 2.5 2.5 2.5 2.5-1.1 2.5-2.5-1.1-2.5-2.5-2.5zm-10-10c-1.4 0-2.5 1.1-2.5 2.5s1.1 2.5 2.5 2.5 2.5-1.1 2.5-2.5c0-1.3-1.1-2.5-2.5-2.5zm10 0c-1.4 0-2.5 1.1-2.5 2.5s1.1 2.5 2.5 2.5 2.5-1.1 2.5-2.5c0-1.3-1.1-2.5-2.5-2.5zm-15 15c-1.4 0-2.5 1.1-2.5 2.5s1.1 2.5 2.5 2.5 2.5-1.1 2.5-2.5-1.1-2.5-2.5-2.5zm0-10c-1.4 0-2.5 1.1-2.5 2.5s1.1 2.5 2.5 2.5 2.5-1.1 2.5-2.5-1.1-2.5-2.5-2.5zm20-5c1.3 0 2.3-0.9 2.5-2.2-0.1-0.1-0.1-0.2-0.2-0.3-0.4-0.8-0.8-1.5-1.2-2.2-0.3-0.2-0.7-0.3-1.1-0.3-1.4 0-2.5 1.1-2.5 2.5s1.1 2.5 2.5 2.5zm0 30c1.4 0 2.5-1.1 2.5-2.5s-1.1-2.5-2.5-2.5-2.5 1.1-2.5 2.5c0 1.4 1.1 2.5 2.5 2.5zm-10-5c-1.4 0-2.5 1.1-2.5 2.5s1.1 2.5 2.5 2.5 2.5-1.1 2.5-2.5-1.1-2.5-2.5-2.5zm-5 10c1.4 0 2.5-1.1 2.5-2.5s-1.1-2.5-2.5-2.5-2.5 1.1-2.5 2.5 1.2 2.5 2.5 2.5zm10-5c-1.4 0-2.5 1.1-2.5 2.5s1.1 2.5 2.5 2.5 2.5-1.1 2.5-2.5-1.1-2.5-2.5-2.5zm-10-5c1.4 0 2.5-1.1 2.5-2.5s-1.1-2.5-2.5-2.5-2.5 1.1-2.5 2.5 1.2 2.5 2.5 2.5zm10-5c-1.4 0-2.5 1.1-2.5 2.5s1.1 2.5 2.5 2.5 2.5-1.1 2.5-2.5-1.1-2.5-2.5-2.5zm-15 15c-1.4 0-2.5 1.1-2.5 2.5 0 0.7 0.3 1.3 0.7 1.8 0.5 0.5 1.1 0.7 1.8 0.7s1.3-0.3 1.8-0.7c0.5-0.5 0.7-1.1 0.7-1.8 0-1.4-1.1-2.5-2.5-2.5zm0-10c-1.4 0-2.5 1.1-2.5 2.5s1.1 2.5 2.5 2.5 2.5-1.1 2.5-2.5-1.1-2.5-2.5-2.5zm10 29.9c-1.4 0-2.5 1.1-2.5 2.5s1.1 2.5 2.5 2.5 2.5-1.1 2.5-2.5-1.1-2.5-2.5-2.5zm0-5c1.4 0 2.5-1.1 2.5-2.5s-1.1-2.5-2.5-2.5-2.5 1.1-2.5 2.5 1.1 2.5 2.5 2.5zm-5 5c1.4 0 2.5-1.1 2.5-2.5s-1.1-2.5-2.5-2.5-2.5 1.1-2.5 2.5 1.2 2.5 2.5 2.5zm10 0c1.4 0 2.5-1.1 2.5-2.5s-1.1-2.5-2.5-2.5-2.5 1.1-2.5 2.5 1.1 2.5 2.5 2.5zm-10-14.9c-1.4 0-2.5 1.1-2.5 2.5s1.1 2.5 2.5 2.5 2.5-1.1 2.5-2.5-1.1-2.5-2.5-2.5zm10 0c-1.4 0-2.5 1.1-2.5 2.5s1.1 2.5 2.5 2.5 2.5-1.1 2.5-2.5-1.1-2.5-2.5-2.5zm-15 14.9c-1.4 0-2.5 1.1-2.5 2.5s1.1 2.5 2.5 2.5 2.5-1.1 2.5-2.5-1.1-2.5-2.5-2.5zm10-14.9c0.7 0 1.3-0.3 1.8-0.7 0.5-0.5 0.7-1.1 0.7-1.8 0-1.4-1.1-2.5-2.5-2.5s-2.5 1.1-2.5 2.5c0 0.7 0.3 1.3 0.7 1.8 0.5 0.4 1.1 0.7 1.8 0.7zm0 34.9c-1.4 0-2.5 1.1-2.5 2.5s1.1 2.5 2.5 2.5 2.5-1.1 2.5-2.5-1.1-2.5-2.5-2.5zm10-5c1.4 0 2.5-1.1 2.5-2.5s-1.1-2.5-2.5-2.5-2.5 1.1-2.5 2.5c0 1.4 1.1 2.5 2.5 2.5zm-10 0c1.4 0 2.5-1.1 2.5-2.5s-1.1-2.5-2.5-2.5-2.5 1.1-2.5 2.5 1.1 2.5 2.5 2.5zm-5 5c1.4 0 2.5-1.1 2.5-2.5s-1.1-2.5-2.5-2.5-2.5 1.1-2.5 2.5 1.2 2.5 2.5 2.5zm10-5c-1.4 0-2.5 1.1-2.5 2.5s1.1 2.5 2.5 2.5 2.5-1.1 2.5-2.5-1.1-2.5-2.5-2.5zm-10-10c-1.4 0-2.5 1.1-2.5 2.5s1.1 2.5 2.5 2.5 2.5-1.1 2.5-2.5-1.1-2.5-2.5-2.5zm10 5c1.4 0 2.5-1.1 2.5-2.5s-1.1-2.5-2.5-2.5-2.5 1.1-2.5 2.5 1.1 2.5 2.5 2.5zm-5 29.9c-0.7 0-1.3 0.3-1.8 0.7-0.5 0.5-0.7 1.1-0.7 1.8 0 0.9 0.4 1.6 1.1 2.1 0.3 0.2 0.6 0.3 0.9 0.4h0.2c0.8-0.3 1.6-0.6 2.3-1 0.3-0.4 0.5-0.9 0.5-1.4 0-0.7-0.3-1.3-0.7-1.8-0.5-0.5-1.1-0.8-1.8-0.8zm0-5c1.4 0 2.5-1.1 2.5-2.5s-1.1-2.5-2.5-2.5-2.5 1.1-2.5 2.5 1.1 2.5 2.5 2.5zm-5 5c1.4 0 2.5-1.1 2.5-2.5s-1.1-2.5-2.5-2.5-2.5 1.1-2.5 2.5 1.2 2.5 2.5 2.5zm10-5c-1.4 0-2.5 1.1-2.5 2.5s1.1 2.5 2.5 2.5 2.5-1.1 2.5-2.5c0-1.3-1.1-2.5-2.5-2.5zm-10-9.9c-1.4 0-2.5 1.1-2.5 2.5s1.1 2.5 2.5 2.5 2.5-1.1 2.5-2.5-1.1-2.5-2.5-2.5zm10 5c1.4 0 2.5-1.1 2.5-2.5s-1.1-2.5-2.5-2.5-2.5 1.1-2.5 2.5c0 1.3 1.1 2.5 2.5 2.5zm-15 9.9c-0.7 0-1.3 0.3-1.8 0.7-0.5 0.5-0.7 1.1-0.7 1.8 0 0.9 0.4 1.6 1.1 2.1 0.3 0.2 0.6 0.3 0.9 0.4 0.2 0 0.3 0.1 0.5 0.1s0.3 0 0.5-0.1c0.3-0.1 0.6-0.2 0.9-0.4 0.7-0.4 1.1-1.2 1.1-2.1 0-0.7-0.3-1.3-0.7-1.8-0.4-0.4-1.1-0.7-1.8-0.7zm20-14.9c1.4 0 2.5-1.1 2.5-2.5s-1.1-2.5-2.5-2.5-2.5 1.1-2.5 2.5c0 1.4 1.1 2.5 2.5 2.5zm-17.3 21.6c1.4-0.2 2.9-0.4 4.2-0.8-0.5-0.5-1.1-0.9-1.9-0.9-1.1 0-2 0.7-2.3 1.7zm-17.6-126.4c1.4 0 2.5-1.1 2.5-2.5s-1.1-2.5-2.5-2.5-2.5 1.1-2.5 2.5 1.1 2.5 2.5 2.5zm10 0c1.3 0 2.4-1 2.5-2.3-1.5-0.6-3-1.1-4.5-1.6-0.3 0.4-0.4 0.9-0.4 1.4-0.1 1.4 1 2.5 2.4 2.5zm-13.5-5.6c-0.5 0-1 0-1.6-0.1h-1.7c0.4 0.4 1 0.7 1.7 0.7s1.2-0.2 1.6-0.6zm8.5 25.6c-1.4 0-2.5 1.1-2.5 2.5s1.1 2.5 2.5 2.5 2.5-1.1 2.5-2.5-1.2-2.5-2.5-2.5zm0-10c-1.4 0-2.5 1.1-2.5 2.5s1.1 2.5 2.5 2.5 2.5-1.1 2.5-2.5-1.2-2.5-2.5-2.5zm-5 5c-1.4 0-2.5 1.1-2.5 2.5s1.1 2.5 2.5 2.5 2.5-1.1 2.5-2.5-1.1-2.5-2.5-2.5zm10 0c-1.4 0-2.5 1.1-2.5 2.5s1.1 2.5 2.5 2.5 2.5-1.1 2.5-2.5c-0.1-1.4-1.2-2.5-2.5-2.5zm-10-10c-1.4 0-2.5 1.1-2.5 2.5s1.1 2.5 2.5 2.5 2.5-1.1 2.5-2.5-1.1-2.5-2.5-2.5zm10 0c-1.4 0-2.5 1.1-2.5 2.5s1.1 2.5 2.5 2.5 2.5-1.1 2.5-2.5c-0.1-1.4-1.2-2.5-2.5-2.5zm-15 15c-1.4 0-2.5 1.1-2.5 2.5s1.1 2.5 2.5 2.5 2.5-1.1 2.5-2.5-1.1-2.5-2.5-2.5zm0-10c-1.4 0-2.5 1.1-2.5 2.5s1.1 2.5 2.5 2.5 2.5-1.1 2.5-2.5-1.1-2.5-2.5-2.5zm19.9-5c1.4 0 2.5-1.1 2.5-2.5s-1.1-2.5-2.5-2.5-2.5 1.1-2.5 2.5 1.2 2.5 2.5 2.5zm-9.9 0c1.4 0 2.5-1.1 2.5-2.5s-1.1-2.5-2.5-2.5-2.5 1.1-2.5 2.5 1.1 2.5 2.5 2.5zm0 34.9c-1.4 0-2.5 1.1-2.5 2.5s1.1 2.5 2.5 2.5 2.5-1.1 2.5-2.5-1.2-2.5-2.5-2.5zm0-10c-1.4 0-2.5 1.1-2.5 2.5s1.1 2.5 2.5 2.5 2.5-1.1 2.5-2.5-1.2-2.5-2.5-2.5zm-5 10c1.4 0 2.5-1.1 2.5-2.5s-1.1-2.5-2.5-2.5-2.5 1.1-2.5 2.5 1.1 2.5 2.5 2.5zm10-5c-1.4 0-2.5 1.1-2.5 2.5s1.1 2.5 2.5 2.5 2.5-1.1 2.5-2.5c-0.1-1.4-1.2-2.5-2.5-2.5zm-10-10c-1.4 0-2.5 1.1-2.5 2.5s1.1 2.5 2.5 2.5 2.5-1.1 2.5-2.5c0-1.3-1.1-2.5-2.5-2.5zm10 0c-1.4 0-2.5 1.1-2.5 2.5s1.1 2.5 2.5 2.5 2.5-1.1 2.5-2.5c-0.1-1.3-1.2-2.5-2.5-2.5zm-15 15c-1.4 0-2.5 1.1-2.5 2.5s1.1 2.5 2.5 2.5 2.5-1.1 2.5-2.5-1.1-2.5-2.5-2.5zm19.9-15c1.4 0 2.5-1.1 2.5-2.5s-1.1-2.5-2.5-2.5-2.5 1.1-2.5 2.5 1.2 2.5 2.5 2.5zm-9.9 30c1.4 0 2.5-1.1 2.5-2.5s-1.1-2.5-2.5-2.5-2.5 1.1-2.5 2.5 1.1 2.5 2.5 2.5zm-5 5c1.4 0 2.5-1.1 2.5-2.5s-1.1-2.5-2.5-2.5-2.5 1.1-2.5 2.5 1.1 2.5 2.5 2.5zm10-5c-1.4 0-2.5 1.1-2.5 2.5s1.1 2.5 2.5 2.5 2.5-1.1 2.5-2.5c-0.1-1.4-1.2-2.5-2.5-2.5zm-10-10c-1.4 0-2.5 1.1-2.5 2.5s1.1 2.5 2.5 2.5 2.5-1.1 2.5-2.5-1.1-2.5-2.5-2.5zm10 0c-1.4 0-2.5 1.1-2.5 2.5s1.1 2.5 2.5 2.5 2.5-1.1 2.5-2.5c-0.1-1.4-1.2-2.5-2.5-2.5zm-15 5c-1.4 0-2.5 1.1-2.5 2.5s1.1 2.5 2.5 2.5 2.5-1.1 2.5-2.5-1.1-2.5-2.5-2.5zm19.9 24.9c1.4 0 2.5-1.1 2.5-2.5s-1.1-2.5-2.5-2.5-2.5 1.1-2.5 2.5 1.2 2.5 2.5 2.5zm-9.9 0c1.4 0 2.5-1.1 2.5-2.5s-1.1-2.5-2.5-2.5-2.5 1.1-2.5 2.5 1.1 2.5 2.5 2.5zm-5 5c1.4 0 2.5-1.1 2.5-2.5s-1.1-2.5-2.5-2.5-2.5 1.1-2.5 2.5 1.1 2.5 2.5 2.5zm10 0c1.4 0 2.5-1.1 2.5-2.5s-1.1-2.5-2.5-2.5-2.5 1.1-2.5 2.5 1.1 2.5 2.5 2.5zm-10-10c1.4 0 2.5-1.1 2.5-2.5s-1.1-2.5-2.5-2.5-2.5 1.1-2.5 2.5 1.1 2.5 2.5 2.5zm10-4.9c-1.4 0-2.5 1.1-2.5 2.5s1.1 2.5 2.5 2.5 2.5-1.1 2.5-2.5c-0.1-1.4-1.2-2.5-2.5-2.5zm-5 0c0.7 0 1.3-0.3 1.8-0.7 0.5-0.5 0.7-1.1 0.7-1.8 0-1.4-1.1-2.5-2.5-2.5s-2.5 1.1-2.5 2.5c0 0.7 0.3 1.3 0.7 1.8 0.5 0.4 1.1 0.7 1.8 0.7zm0 34.9c-1.4 0-2.5 1.1-2.5 2.5s1.1 2.5 2.5 2.5 2.5-1.1 2.5-2.5-1.2-2.5-2.5-2.5zm9.9-5c1.4 0 2.5-1.1 2.5-2.5s-1.1-2.5-2.5-2.5-2.5 1.1-2.5 2.5 1.2 2.5 2.5 2.5zm-9.9 0c1.4 0 2.5-1.1 2.5-2.5s-1.1-2.5-2.5-2.5-2.5 1.1-2.5 2.5 1.1 2.5 2.5 2.5zm-5 5c1.4 0 2.5-1.1 2.5-2.5s-1.1-2.5-2.5-2.5-2.5 1.1-2.5 2.5 1.1 2.5 2.5 2.5zm10 0c1.4 0 2.5-1.1 2.5-2.5s-1.1-2.5-2.5-2.5-2.5 1.1-2.5 2.5 1.1 2.5 2.5 2.5zm-10-15c-1.4 0-2.5 1.1-2.5 2.5s1.1 2.5 2.5 2.5 2.5-1.1 2.5-2.5-1.1-2.5-2.5-2.5zm10 5c1.4 0 2.5-1.1 2.5-2.5s-1.1-2.5-2.5-2.5-2.5 1.1-2.5 2.5 1.1 2.5 2.5 2.5zm-5-5c1.4 0 2.5-1.1 2.5-2.5s-1.1-2.5-2.5-2.5-2.5 1.1-2.5 2.5 1.1 2.5 2.5 2.5zm0 34.9c-0.7 0-1.3 0.3-1.8 0.7-0.5 0.5-0.7 1.1-0.7 1.8 0 0.9 0.4 1.6 1.1 2.1 0.3 0.2 0.6 0.3 0.9 0.4 0.2 0 0.3 0.1 0.5 0.1s0.3 0 0.5-0.1c0.3-0.1 0.6-0.2 0.9-0.4 0.7-0.4 1.1-1.2 1.1-2.1 0-0.7-0.3-1.3-0.7-1.8-0.5-0.4-1.1-0.7-1.8-0.7zm9.9-5c1.4 0 2.5-1.1 2.5-2.5s-1.1-2.5-2.5-2.5-2.5 1.1-2.5 2.5 1.2 2.5 2.5 2.5zm-9.9 0c1.4 0 2.5-1.1 2.5-2.5s-1.1-2.5-2.5-2.5-2.5 1.1-2.5 2.5 1.1 2.5 2.5 2.5zm-5 0c-1.4 0-2.5 1.1-2.5 2.5s1.1 2.5 2.5 2.5 2.5-1.1 2.5-2.5c0-1.3-1.1-2.5-2.5-2.5zm10 5c1.4 0 2.5-1.1 2.5-2.5s-1.1-2.5-2.5-2.5-2.5 1.1-2.5 2.5 1.1 2.5 2.5 2.5zm-10-9.9c1.4 0 2.5-1.1 2.5-2.5s-1.1-2.5-2.5-2.5-2.5 1.1-2.5 2.5c0 1.3 1.1 2.5 2.5 2.5zm10 0c1.4 0 2.5-1.1 2.5-2.5s-1.1-2.5-2.5-2.5-2.5 1.1-2.5 2.5c0 1.3 1.1 2.5 2.5 2.5zm-15 9.9c-0.7 0-1.3 0.3-1.8 0.7-0.3 0.3-0.5 0.6-0.6 1 0.6 0.3 1.3 0.6 1.9 0.8 0.1 0.1 0.3 0.1 0.4 0.2 0.8 0.3 1.5 0.6 2.3 0.9 0.1-0.3 0.2-0.7 0.2-1 0-0.7-0.3-1.3-0.7-1.8s-1-0.8-1.7-0.8zm19.9-14.9c1.4 0 2.5-1.1 2.5-2.5s-1.1-2.5-2.5-2.5-2.5 1.1-2.5 2.5 1.2 2.5 2.5 2.5zm-4.9 19.9c-1 0-1.8 0.5-2.2 1.3 1.6 0.2 3.1 0.4 4.6 0.5-0.4-1-1.3-1.8-2.4-1.8zm-23.4-130.3c-1 0-2.1 0.1-3.1 0.1 0.4 0.3 0.9 0.5 1.5 0.5s1.2-0.2 1.6-0.6zm-6.6 5.6c1.4 0 2.5-1.1 2.5-2.5s-1.1-2.5-2.5-2.5-2.5 1.1-2.5 2.5 1.1 2.5 2.5 2.5zm10 0c1.4 0 2.5-1.1 2.5-2.5s-1.1-2.5-2.5-2.5-2.5 1.1-2.5 2.5c0 1.4 1.1 2.5 2.5 2.5zm-5 20c-1.4 0-2.5 1.1-2.5 2.5s1.1 2.5 2.5 2.5 2.5-1.1 2.5-2.5-1.1-2.5-2.5-2.5zm0-10c-1.4 0-2.5 1.1-2.5 2.5s1.1 2.5 2.5 2.5 2.5-1.1 2.5-2.5-1.1-2.5-2.5-2.5zm-5 5c-1.4 0-2.5 1.1-2.5 2.5s1.1 2.5 2.5 2.5 2.5-1.1 2.5-2.5-1.1-2.5-2.5-2.5zm10 5c1.4 0 2.5-1.1 2.5-2.5s-1.1-2.5-2.5-2.5-2.5 1.1-2.5 2.5c0 1.3 1.1 2.5 2.5 2.5zm-10-15c-1.4 0-2.5 1.1-2.5 2.5s1.1 2.5 2.5 2.5 2.5-1.1 2.5-2.5-1.1-2.5-2.5-2.5zm10 0c-1.4 0-2.5 1.1-2.5 2.5s1.1 2.5 2.5 2.5 2.5-1.1 2.5-2.5c0-1.4-1.1-2.5-2.5-2.5zm-15 15c-1.4 0-2.5 1.1-2.5 2.5s1.1 2.5 2.5 2.5 2.5-1.1 2.5-2.5c0-1.4-1.1-2.5-2.5-2.5zm0-10c-1.4 0-2.5 1.1-2.5 2.5s1.1 2.5 2.5 2.5 2.5-1.1 2.5-2.5c0-1.4-1.1-2.5-2.5-2.5zm20-5c1.4 0 2.5-1.1 2.5-2.5s-1.1-2.5-2.5-2.5-2.5 1.1-2.5 2.5 1.1 2.5 2.5 2.5zm-10 0c1.4 0 2.5-1.1 2.5-2.5s-1.1-2.5-2.5-2.5-2.5 1.1-2.5 2.5 1.1 2.5 2.5 2.5zm0 34.9c-1.4 0-2.5 1.1-2.5 2.5s1.1 2.5 2.5 2.5 2.5-1.1 2.5-2.5-1.1-2.5-2.5-2.5zm10-5c1.4 0 2.5-1.1 2.5-2.5s-1.1-2.5-2.5-2.5-2.5 1.1-2.5 2.5 1.1 2.5 2.5 2.5zm-10-5c-1.4 0-2.5 1.1-2.5 2.5s1.1 2.5 2.5 2.5 2.5-1.1 2.5-2.5-1.1-2.5-2.5-2.5zm-5 10c1.4 0 2.5-1.1 2.5-2.5s-1.1-2.5-2.5-2.5-2.5 1.1-2.5 2.5 1.1 2.5 2.5 2.5zm10-5c-1.4 0-2.5 1.1-2.5 2.5s1.1 2.5 2.5 2.5 2.5-1.1 2.5-2.5c0-1.4-1.1-2.5-2.5-2.5zm-10-10c-1.4 0-2.5 1.1-2.5 2.5s1.1 2.5 2.5 2.5 2.5-1.1 2.5-2.5c0-1.3-1.1-2.5-2.5-2.5zm10 0c-1.4 0-2.5 1.1-2.5 2.5s1.1 2.5 2.5 2.5 2.5-1.1 2.5-2.5c0-1.3-1.1-2.5-2.5-2.5zm-15 15c-1.4 0-2.5 1.1-2.5 2.5s1.1 2.5 2.5 2.5 2.5-1.1 2.5-2.5c0-1.4-1.1-2.5-2.5-2.5zm10 15c1.4 0 2.5-1.1 2.5-2.5s-1.1-2.5-2.5-2.5-2.5 1.1-2.5 2.5 1.1 2.5 2.5 2.5zm-5 5c1.4 0 2.5-1.1 2.5-2.5s-1.1-2.5-2.5-2.5-2.5 1.1-2.5 2.5 1.1 2.5 2.5 2.5zm10-5c-1.4 0-2.5 1.1-2.5 2.5s1.1 2.5 2.5 2.5 2.5-1.1 2.5-2.5c0-1.4-1.1-2.5-2.5-2.5zm-10-10c-1.4 0-2.5 1.1-2.5 2.5s1.1 2.5 2.5 2.5 2.5-1.1 2.5-2.5-1.1-2.5-2.5-2.5zm10 0c-1.4 0-2.5 1.1-2.5 2.5s1.1 2.5 2.5 2.5 2.5-1.1 2.5-2.5c0-1.4-1.1-2.5-2.5-2.5zm-15 5c-1.4 0-2.5 1.1-2.5 2.5s1.1 2.5 2.5 2.5 2.5-1.1 2.5-2.5c0-1.4-1.1-2.5-2.5-2.5zm10 29.9c-1.4 0-2.5 1.1-2.5 2.5s1.1 2.5 2.5 2.5 2.5-1.1 2.5-2.5-1.1-2.5-2.5-2.5zm10-5c1.4 0 2.5-1.1 2.5-2.5s-1.1-2.5-2.5-2.5-2.5 1.1-2.5 2.5 1.1 2.5 2.5 2.5zm-10 0c1.4 0 2.5-1.1 2.5-2.5s-1.1-2.5-2.5-2.5-2.5 1.1-2.5 2.5 1.1 2.5 2.5 2.5zm-5 5c1.4 0 2.5-1.1 2.5-2.5s-1.1-2.5-2.5-2.5-2.5 1.1-2.5 2.5 1.1 2.5 2.5 2.5zm10 0c1.4 0 2.5-1.1 2.5-2.5s-1.1-2.5-2.5-2.5-2.5 1.1-2.5 2.5c0 1.4 1.1 2.5 2.5 2.5zm-10-14.9c-1.4 0-2.5 1.1-2.5 2.5s1.1 2.5 2.5 2.5 2.5-1.1 2.5-2.5-1.1-2.5-2.5-2.5zm10 4.9c1.4 0 2.5-1.1 2.5-2.5s-1.1-2.5-2.5-2.5-2.5 1.1-2.5 2.5c0 1.4 1.1 2.5 2.5 2.5zm5-4.9c0.7 0 1.3-0.3 1.8-0.7 0.5-0.5 0.7-1.1 0.7-1.8 0-1.4-1.1-2.5-2.5-2.5s-2.5 1.1-2.5 2.5c0 0.7 0.3 1.3 0.7 1.8 0.5 0.4 1.1 0.7 1.8 0.7zm-10 0c0.7 0 1.3-0.3 1.8-0.7 0.5-0.5 0.7-1.1 0.7-1.8 0-1.4-1.1-2.5-2.5-2.5s-2.5 1.1-2.5 2.5c0 0.7 0.3 1.3 0.7 1.8 0.5 0.4 1.1 0.7 1.8 0.7zm10 29.9c1.4 0 2.5-1.1 2.5-2.5s-1.1-2.5-2.5-2.5-2.5 1.1-2.5 2.5 1.1 2.5 2.5 2.5zm-10 0c1.4 0 2.5-1.1 2.5-2.5s-1.1-2.5-2.5-2.5-2.5 1.1-2.5 2.5 1.1 2.5 2.5 2.5zm-5 5c1.4 0 2.5-1.1 2.5-2.5s-1.1-2.5-2.5-2.5-2.5 1.1-2.5 2.5 1.1 2.5 2.5 2.5zm10-5c-1.4 0-2.5 1.1-2.5 2.5s1.1 2.5 2.5 2.5 2.5-1.1 2.5-2.5c0-1.4-1.1-2.5-2.5-2.5zm-10-5c1.4 0 2.5-1.1 2.5-2.5s-1.1-2.5-2.5-2.5-2.5 1.1-2.5 2.5 1.1 2.5 2.5 2.5zm10 0c1.4 0 2.5-1.1 2.5-2.5s-1.1-2.5-2.5-2.5-2.5 1.1-2.5 2.5c0 1.4 1.1 2.5 2.5 2.5zm5-5c1.4 0 2.5-1.1 2.5-2.5s-1.1-2.5-2.5-2.5-2.5 1.1-2.5 2.5 1.1 2.5 2.5 2.5zm0 29.9c1.4 0 2.5-1.1 2.5-2.5s-1.1-2.5-2.5-2.5-2.5 1.1-2.5 2.5 1.1 2.5 2.5 2.5zm-10-4.9c-1.4 0-2.5 1.1-2.5 2.5s1.1 2.5 2.5 2.5 2.5-1.1 2.5-2.5-1.1-2.5-2.5-2.5zm-5 4.9c0.7 0.4 1.4 0.9 2.2 1.3-0.4-0.7-1.2-1.2-2.2-1.3zm10 0c-1.4 0-2.5 1.1-2.5 2.5s1.1 2.5 2.5 2.5 2.5-1.1 2.5-2.5c0-1.3-1.1-2.5-2.5-2.5zm-7.5-7.4c0-1.4-1.1-2.5-2.5-2.5s-2.5 1.1-2.5 2.5 1.1 2.5 2.5 2.5 2.5-1.2 2.5-2.5zm7.5 2.5c1.4 0 2.5-1.1 2.5-2.5s-1.1-2.5-2.5-2.5-2.5 1.1-2.5 2.5c0 1.3 1.1 2.5 2.5 2.5zm-15 0c-0.6 0-1.2 0.2-1.6 0.6 0.5 0.4 1.1 0.8 1.6 1.1 0.8 0.5 1.6 1 2.3 1.6 0.1-0.3 0.1-0.5 0.1-0.8 0.1-1.4-1-2.5-2.4-2.5zm20-5c1.4 0 2.5-1.1 2.5-2.5s-1.1-2.5-2.5-2.5-2.5 1.1-2.5 2.5 1.1 2.5 2.5 2.5zm-10 0c1.4 0 2.5-1.1 2.5-2.5s-1.1-2.5-2.5-2.5-2.5 1.1-2.5 2.5 1.1 2.5 2.5 2.5zm-7.5-2.5c0-1.4-1.1-2.5-2.5-2.5s-2.5 1.1-2.5 2.5c0 1.4 1.1 2.5 2.5 2.5s2.5-1.1 2.5-2.5zm-17.4-102.3c1.4 0 2.5-1.1 2.5-2.5 0-0.3-0.1-0.5-0.1-0.8-1.6 0.3-3.2 0.5-4.8 0.8-0.1 1.4 1 2.5 2.4 2.5zm9.9 0c1.4 0 2.5-1.1 2.5-2.5 0-0.8-0.4-1.6-1-2-1.1 0.1-2.2 0.3-3.3 0.4-0.4 0.4-0.6 1-0.6 1.6-0.1 1.4 1.1 2.5 2.4 2.5zm-4.9 20c-1.4 0-2.5 1.1-2.5 2.5s1.1 2.5 2.5 2.5 2.5-1.1 2.5-2.5c-0.1-1.4-1.2-2.5-2.5-2.5zm0-10c-1.4 0-2.5 1.1-2.5 2.5s1.1 2.5 2.5 2.5 2.5-1.1 2.5-2.5c-0.1-1.4-1.2-2.5-2.5-2.5zm-5 5c-1.4 0-2.5 1.1-2.5 2.5s1.1 2.5 2.5 2.5 2.5-1.1 2.5-2.5-1.2-2.5-2.5-2.5zm9.9 5c1.4 0 2.5-1.1 2.5-2.5s-1.1-2.5-2.5-2.5-2.5 1.1-2.5 2.5c0 1.3 1.2 2.5 2.5 2.5zm-9.9-15c-1.4 0-2.5 1.1-2.5 2.5s1.1 2.5 2.5 2.5 2.5-1.1 2.5-2.5-1.2-2.5-2.5-2.5zm9.9 0c-1.4 0-2.5 1.1-2.5 2.5s1.1 2.5 2.5 2.5 2.5-1.1 2.5-2.5-1.1-2.5-2.5-2.5zm-14.9 5c-1.4 0-2.5 1.1-2.5 2.5s1.1 2.5 2.5 2.5c0.7 0 1.3-0.3 1.8-0.7s0.7-1.1 0.7-1.8c0-0.7-0.3-1.3-0.7-1.8-0.5-0.4-1.1-0.7-1.8-0.7zm19.9-5c1.4 0 2.5-1.1 2.5-2.5s-1.1-2.5-2.5-2.5-2.5 1.1-2.5 2.5c0 1.4 1.2 2.5 2.5 2.5zm-9.9 0c1.4 0 2.5-1.1 2.5-2.5s-1.1-2.5-2.5-2.5-2.5 1.1-2.5 2.5 1.1 2.5 2.5 2.5zm9.9 29.9c1.4 0 2.5-1.1 2.5-2.5s-1.1-2.5-2.5-2.5-2.5 1.1-2.5 2.5c0 1.4 1.2 2.5 2.5 2.5zm-9.9-5c-1.4 0-2.5 1.1-2.5 2.5s1.1 2.5 2.5 2.5 2.5-1.1 2.5-2.5c-0.1-1.4-1.2-2.5-2.5-2.5zm-5 5c-1.4 0-2.5 1.1-2.5 2.5s1.1 2.5 2.5 2.5 2.5-1.1 2.5-2.5-1.2-2.5-2.5-2.5zm9.9 0c-1.4 0-2.5 1.1-2.5 2.5s1.1 2.5 2.5 2.5 2.5-1.1 2.5-2.5-1.1-2.5-2.5-2.5zm-9.9-5c1.4 0 2.5-1.1 2.5-2.5s-1.1-2.5-2.5-2.5-2.5 1.1-2.5 2.5 1.1 2.5 2.5 2.5zm9.9-5c-1.4 0-2.5 1.1-2.5 2.5s1.1 2.5 2.5 2.5 2.5-1.1 2.5-2.5c0-1.3-1.1-2.5-2.5-2.5zm-14.9 15c-1.4 0-2.5 1.1-2.5 2.5s1.1 2.5 2.5 2.5c0.7 0 1.3-0.3 1.8-0.7s0.7-1.1 0.7-1.8c0-0.7-0.3-1.3-0.7-1.8s-1.1-0.7-1.8-0.7zm0-10c-1.4 0-2.5 1.1-2.5 2.5s1.1 2.5 2.5 2.5c0.7 0 1.3-0.3 1.8-0.7s0.7-1.1 0.7-1.8c0-0.7-0.3-1.3-0.7-1.8s-1.1-0.7-1.8-0.7zm10 25c1.4 0 2.5-1.1 2.5-2.5s-1.1-2.5-2.5-2.5-2.5 1.1-2.5 2.5 1.1 2.5 2.5 2.5zm-5 5c1.4 0 2.5-1.1 2.5-2.5s-1.1-2.5-2.5-2.5-2.5 1.1-2.5 2.5 1.1 2.5 2.5 2.5zm9.9 0c1.4 0 2.5-1.1 2.5-2.5s-1.1-2.5-2.5-2.5-2.5 1.1-2.5 2.5 1.2 2.5 2.5 2.5zm-9.9-15c-1.4 0-2.5 1.1-2.5 2.5s1.1 2.5 2.5 2.5 2.5-1.1 2.5-2.5-1.2-2.5-2.5-2.5zm9.9 0c-1.4 0-2.5 1.1-2.5 2.5s1.1 2.5 2.5 2.5 2.5-1.1 2.5-2.5-1.1-2.5-2.5-2.5zm-4.9 0c1.4 0 2.5-1.1 2.5-2.5s-1.1-2.5-2.5-2.5-2.5 1.1-2.5 2.5 1.1 2.5 2.5 2.5zm9.9 29.9c1.4 0 2.5-1.1 2.5-2.5s-1.1-2.5-2.5-2.5-2.5 1.1-2.5 2.5c0 1.4 1.2 2.5 2.5 2.5zm-9.9 0c1.4 0 2.5-1.1 2.5-2.5s-1.1-2.5-2.5-2.5-2.5 1.1-2.5 2.5 1.1 2.5 2.5 2.5zm-5 0c-1.4 0-2.5 1.1-2.5 2.5s1.1 2.5 2.5 2.5 2.5-1.1 2.5-2.5c0-1.3-1.2-2.5-2.5-2.5zm9.9 5c1.4 0 2.5-1.1 2.5-2.5s-1.1-2.5-2.5-2.5-2.5 1.1-2.5 2.5 1.2 2.5 2.5 2.5zm-9.9-10c1.4 0 2.5-1.1 2.5-2.5s-1.1-2.5-2.5-2.5-2.5 1.1-2.5 2.5 1.1 2.5 2.5 2.5zm9.9 0c1.4 0 2.5-1.1 2.5-2.5s-1.1-2.5-2.5-2.5-2.5 1.1-2.5 2.5 1.2 2.5 2.5 2.5zm5-4.9c0.7 0 1.3-0.3 1.8-0.7 0.5-0.5 0.7-1.1 0.7-1.8 0-1.4-1.1-2.5-2.5-2.5s-2.5 1.1-2.5 2.5c0 0.7 0.3 1.3 0.7 1.8 0.5 0.4 1.1 0.7 1.8 0.7zm-9.9 0c0.7 0 1.3-0.3 1.8-0.7 0.5-0.5 0.7-1.1 0.7-1.8 0-1.4-1.1-2.5-2.5-2.5s-2.5 1.1-2.5 2.5c0 0.7 0.3 1.3 0.7 1.8 0.4 0.4 1.1 0.7 1.8 0.7zm0 34.9c-1.4 0-2.4 1.1-2.5 2.4l0.1 0.1c0.3 0.3 0.7 0.5 1 0.8 0.7 0.5 1.3 1.1 2 1.6 1.1-0.3 1.9-1.2 1.9-2.4-0.1-1.4-1.2-2.5-2.5-2.5zm9.9-5c1.4 0 2.5-1.1 2.5-2.5s-1.1-2.5-2.5-2.5-2.5 1.1-2.5 2.5c0 1.4 1.2 2.5 2.5 2.5zm-9.9 0c1.4 0 2.5-1.1 2.5-2.5s-1.1-2.5-2.5-2.5-2.5 1.1-2.5 2.5 1.1 2.5 2.5 2.5zm-5 0c-1.4 0-2.5 1.1-2.5 2.5s1.1 2.5 2.5 2.5 2.5-1.1 2.5-2.5-1.2-2.5-2.5-2.5zm9.9 5c1.4 0 2.5-1.1 2.5-2.5s-1.1-2.5-2.5-2.5-2.5 1.1-2.5 2.5 1.2 2.5 2.5 2.5zm-9.9-10c1.4 0 2.5-1.1 2.5-2.5s-1.1-2.5-2.5-2.5-2.5 1.1-2.5 2.5 1.1 2.5 2.5 2.5zm9.9 0c1.4 0 2.5-1.1 2.5-2.5s-1.1-2.5-2.5-2.5-2.5 1.1-2.5 2.5 1.2 2.5 2.5 2.5zm-13.2 0.7c-0.5-0.5-1.1-0.7-1.8-0.7-1.4 0-2.5 1.1-2.5 2.5s1.1 2.5 2.5 2.5c0.7 0 1.3-0.3 1.8-0.7 0.5-0.5 0.7-1.1 0.7-1.8 0.1-0.7-0.2-1.3-0.7-1.8zm18.2-5.7c1.4 0 2.5-1.1 2.5-2.5s-1.1-2.5-2.5-2.5-2.5 1.1-2.5 2.5c0 1.4 1.2 2.5 2.5 2.5zm-9.9 0c1.4 0 2.5-1.1 2.5-2.5s-1.1-2.5-2.5-2.5-2.5 1.1-2.5 2.5 1.1 2.5 2.5 2.5zm4.9 20c-1 0-1.9 0.6-2.3 1.5 1.3 1 2.6 1.9 3.9 2.9 0.5-0.5 0.9-1.1 0.9-1.9 0-1.4-1.1-2.5-2.5-2.5zm-17.7-106.2c-1.2 0.3-2.5 0.5-3.7 0.8 0.4 0.3 0.9 0.5 1.5 0.5 0.9 0.1 1.8-0.5 2.2-1.3zm-7.2 11.4c-1.4 0-2.5 1.1-2.5 2.5s1.1 2.5 2.5 2.5 2.5-1.1 2.5-2.5-1.1-2.5-2.5-2.5zm-5 5c-1.4 0-2.5 1.1-2.5 2.5s1.1 2.5 2.5 2.5 2.5-1.1 2.5-2.5-1.1-2.5-2.5-2.5zm10 0c-1.4 0-2.5 1.1-2.5 2.5s1.1 2.5 2.5 2.5 2.5-1.1 2.5-2.5-1.1-2.5-2.5-2.5zm-10-5c1.4 0 2.5-1.1 2.5-2.5s-1.1-2.5-2.5-2.5-2.5 1.1-2.5 2.5 1.1 2.5 2.5 2.5zm10 0c1.4 0 2.5-1.1 2.5-2.5s-1.1-2.5-2.5-2.5-2.5 1.1-2.5 2.5 1.1 2.5 2.5 2.5zm-15 0c-1.4 0-2.5 1.1-2.5 2.5s1.1 2.5 2.5 2.5 2.5-1.1 2.5-2.5-1.1-2.5-2.5-2.5zm20-5c0.7 0 1.3-0.3 1.8-0.7s0.7-1.1 0.7-1.8c0-0.7-0.3-1.3-0.7-1.8s-1.1-0.7-1.8-0.7c-1.4 0-2.5 1.1-2.5 2.5s1.1 2.5 2.5 2.5zm-10 0c1.4 0 2.5-1.1 2.5-2.5 0-1.1-0.7-2-1.7-2.4-0.9 0.2-1.8 0.4-2.6 0.7-0.4 0.4-0.7 1-0.7 1.7 0 1.4 1.1 2.5 2.5 2.5zm0 34.9c-1.4 0-2.5 1.1-2.5 2.5s1.1 2.5 2.5 2.5 2.5-1.1 2.5-2.5-1.1-2.5-2.5-2.5zm0-10c-1.4 0-2.5 1.1-2.5 2.5s1.1 2.5 2.5 2.5 2.5-1.1 2.5-2.5-1.1-2.5-2.5-2.5zm-5 5c-1.4 0-2.5 1.1-2.5 2.5s1.1 2.5 2.5 2.5 2.5-1.1 2.5-2.5-1.1-2.5-2.5-2.5zm10 5c1.4 0 2.5-1.1 2.5-2.5s-1.1-2.5-2.5-2.5-2.5 1.1-2.5 2.5 1.1 2.5 2.5 2.5zm-10-15c-1.4 0-2.5 1.1-2.5 2.5s1.1 2.5 2.5 2.5 2.5-1.1 2.5-2.5c0-1.3-1.1-2.5-2.5-2.5zm10 0c-1.4 0-2.5 1.1-2.5 2.5s1.1 2.5 2.5 2.5 2.5-1.1 2.5-2.5c0-1.3-1.1-2.5-2.5-2.5zm-15 5c-1.4 0-2.5 1.1-2.5 2.5s1.1 2.5 2.5 2.5 2.5-1.1 2.5-2.5-1.1-2.5-2.5-2.5zm20-5c0.7 0 1.3-0.3 1.8-0.7s0.7-1.1 0.7-1.8c0-0.7-0.3-1.3-0.7-1.8s-1.1-0.7-1.8-0.7c-1.4 0-2.5 1.1-2.5 2.5s1.1 2.5 2.5 2.5zm-10 0c1.4 0 2.5-1.1 2.5-2.5s-1.1-2.5-2.5-2.5-2.5 1.1-2.5 2.5 1.1 2.5 2.5 2.5zm10 30c0.7 0 1.3-0.3 1.8-0.7 0.5-0.5 0.7-1.1 0.7-1.8s-0.3-1.3-0.7-1.8-1.1-0.7-1.8-0.7c-1.4 0-2.5 1.1-2.5 2.5s1.1 2.5 2.5 2.5zm-10 0c1.4 0 2.5-1.1 2.5-2.5s-1.1-2.5-2.5-2.5-2.5 1.1-2.5 2.5 1.1 2.5 2.5 2.5zm-5 5c1.4 0 2.5-1.1 2.5-2.5s-1.1-2.5-2.5-2.5-2.5 1.1-2.5 2.5 1.1 2.5 2.5 2.5zm10 0c1.4 0 2.5-1.1 2.5-2.5s-1.1-2.5-2.5-2.5-2.5 1.1-2.5 2.5 1.1 2.5 2.5 2.5zm-10-10c1.4 0 2.5-1.1 2.5-2.5s-1.1-2.5-2.5-2.5-2.5 1.1-2.5 2.5 1.1 2.5 2.5 2.5zm10-5c-1.4 0-2.5 1.1-2.5 2.5s1.1 2.5 2.5 2.5 2.5-1.1 2.5-2.5-1.1-2.5-2.5-2.5zm-15 5c-1.4 0-2.5 1.1-2.5 2.5s1.1 2.5 2.5 2.5 2.5-1.1 2.5-2.5-1.1-2.5-2.5-2.5zm20 24.9c0.7 0 1.3-0.3 1.8-0.7 0.5-0.5 0.7-1.1 0.7-1.8s-0.3-1.3-0.7-1.8-1.1-0.7-1.8-0.7c-1.4 0-2.5 1.1-2.5 2.5s1.1 2.5 2.5 2.5zm-10 0c1.4 0 2.5-1.1 2.5-2.5s-1.1-2.5-2.5-2.5-2.5 1.1-2.5 2.5 1.1 2.5 2.5 2.5zm-5 5c1.4 0 2.5-1.1 2.5-2.5s-1.1-2.5-2.5-2.5-2.5 1.1-2.5 2.5 1.1 2.5 2.5 2.5zm10 0c1.4 0 2.5-1.1 2.5-2.5s-1.1-2.5-2.5-2.5-2.5 1.1-2.5 2.5 1.1 2.5 2.5 2.5zm-10-14.9c-1.4 0-2.5 1.1-2.5 2.5s1.1 2.5 2.5 2.5 2.5-1.1 2.5-2.5-1.1-2.5-2.5-2.5zm10 4.9c1.4 0 2.5-1.1 2.5-2.5s-1.1-2.5-2.5-2.5-2.5 1.1-2.5 2.5 1.1 2.5 2.5 2.5zm-15 10c-1.4 0-2.5 1.1-2.5 2.5s1.1 2.5 2.5 2.5 2.5-1.1 2.5-2.5-1.1-2.5-2.5-2.5zm20-14.9c0.7 0 1.3-0.3 1.8-0.7 0.5-0.5 0.7-1.1 0.7-1.8s-0.3-1.3-0.7-1.8c-0.5-0.5-1.1-0.7-1.8-0.7-1.4 0-2.5 1.1-2.5 2.5 0 0.7 0.3 1.3 0.7 1.8 0.5 0.4 1.1 0.7 1.8 0.7zm-10 0c0.7 0 1.3-0.3 1.8-0.7 0.5-0.5 0.7-1.1 0.7-1.8 0-1.4-1.1-2.5-2.5-2.5s-2.5 1.1-2.5 2.5c0 0.7 0.3 1.3 0.7 1.8 0.5 0.4 1.1 0.7 1.8 0.7zm0 24.9c-1.2 0-2.3 0.9-2.5 2.1 1.5 0.5 3.1 1.1 4.6 1.7 0.2-0.4 0.4-0.8 0.4-1.3 0-1.4-1.1-2.5-2.5-2.5zm5 5h-0.1c0.7 0.3 1.4 0.6 2.1 1-0.5-0.6-1.2-1-2-1zm-10-10c-1.4 0-2.5 1.1-2.5 2.5s1.1 2.5 2.5 2.5 2.5-1.1 2.5-2.5-1.1-2.5-2.5-2.5zm12.5 2.5c0-1.4-1.1-2.5-2.5-2.5s-2.5 1.1-2.5 2.5 1.1 2.5 2.5 2.5 2.5-1.1 2.5-2.5zm2.5-2.5c0.7 0 1.3-0.3 1.8-0.7s0.7-1.1 0.7-1.8c0-0.7-0.3-1.3-0.7-1.8-0.5-0.5-1.1-0.7-1.8-0.7-1.4 0-2.5 1.1-2.5 2.5s1.1 2.5 2.5 2.5zm-10 0c1.4 0 2.5-1.1 2.5-2.5s-1.1-2.5-2.5-2.5-2.5 1.1-2.5 2.5 1.1 2.5 2.5 2.5zm-20-64.8c-1.4 0-2.5 1.1-2.5 2.5s1.1 2.5 2.5 2.5 2.5-1.1 2.5-2.5-1.1-2.5-2.5-2.5zm0-5c1.4 0 2.5-1.1 2.5-2.5s-1.1-2.5-2.5-2.5-2.5 1.1-2.5 2.5c0 1.3 1.2 2.5 2.5 2.5zm-5 5c1.4 0 2.5-1.1 2.5-2.5s-1.1-2.5-2.5-2.5-2.5 1.1-2.5 2.5c0.1 1.3 1.2 2.5 2.5 2.5zm10-5c-1.4 0-2.5 1.1-2.5 2.5s1.1 2.5 2.5 2.5 2.5-1.1 2.5-2.5-1.1-2.5-2.5-2.5zm-7.5-7.3c-1.3 0.6-2.7 1.1-4 1.7 0.4 0.3 0.9 0.5 1.5 0.5 1.3 0.1 2.4-0.9 2.5-2.2zm7.5 2.3c1.4 0 2.5-1.1 2.5-2.5s-1.1-2.5-2.5-2.5c-0.2 0-0.3 0-0.5 0.1s-0.4 0.2-0.6 0.2c-0.8 0.4-1.4 1.2-1.4 2.2 0 1.4 1.2 2.5 2.5 2.5zm-14.9 10c-0.5 0-1 0.2-1.4 0.4-0.7 0.4-1.1 1.2-1.1 2.1s0.4 1.6 1.1 2.1c0.4 0.3 0.9 0.4 1.4 0.4 1.4 0 2.5-1.1 2.5-2.5s-1.2-2.5-2.5-2.5zm19.9-15c1.4 0 2.5-1.1 2.5-2.5v-0.1c-0.1 0-0.2 0-0.2 0.1-0.8 0.2-1.5 0.5-2.3 0.7-0.7 0.2-1.4 0.4-2.1 0.7 0.5 0.6 1.2 1.1 2.1 1.1zm-10 34.9c-1.4 0-2.5 1.1-2.5 2.5s1.1 2.5 2.5 2.5 2.5-1.1 2.5-2.5-1.1-2.5-2.5-2.5zm0-5c1.4 0 2.5-1.1 2.5-2.5s-1.1-2.5-2.5-2.5-2.5 1.1-2.5 2.5 1.2 2.5 2.5 2.5zm-5 0c-1.4 0-2.5 1.1-2.5 2.5s1.1 2.5 2.5 2.5 2.5-1.1 2.5-2.5-1.1-2.5-2.5-2.5zm10 0c-1.4 0-2.5 1.1-2.5 2.5s1.1 2.5 2.5 2.5 2.5-1.1 2.5-2.5-1.1-2.5-2.5-2.5zm-10-10c-1.4 0-2.5 1.1-2.5 2.5s1.1 2.5 2.5 2.5 2.5-1.1 2.5-2.5c0-1.3-1.1-2.5-2.5-2.5zm10 5c1.4 0 2.5-1.1 2.5-2.5s-1.1-2.5-2.5-2.5-2.5 1.1-2.5 2.5 1.2 2.5 2.5 2.5zm-14.9 10c-0.5 0-1 0.2-1.4 0.4-0.7 0.4-1.1 1.2-1.1 2.1s0.4 1.6 1.1 2.1c0.4 0.3 0.9 0.4 1.4 0.4 1.4 0 2.5-1.1 2.5-2.5s-1.2-2.5-2.5-2.5zm19.9-15c1.4 0 2.5-1.1 2.5-2.5s-1.1-2.5-2.5-2.5-2.5 1.1-2.5 2.5 1.1 2.5 2.5 2.5zm-10 25c-1.4 0-2.5 1.1-2.5 2.5s1.1 2.5 2.5 2.5 2.5-1.1 2.5-2.5-1.1-2.5-2.5-2.5zm-5 10c1.4 0 2.5-1.1 2.5-2.5s-1.1-2.5-2.5-2.5-2.5 1.1-2.5 2.5c0.1 1.4 1.2 2.5 2.5 2.5zm10 0c1.4 0 2.5-1.1 2.5-2.5s-1.1-2.5-2.5-2.5-2.5 1.1-2.5 2.5 1.2 2.5 2.5 2.5zm-10-15c-1.4 0-2.5 1.1-2.5 2.5s1.1 2.5 2.5 2.5 2.5-1.1 2.5-2.5-1.1-2.5-2.5-2.5zm10 5c1.4 0 2.5-1.1 2.5-2.5s-1.1-2.5-2.5-2.5-2.5 1.1-2.5 2.5 1.2 2.5 2.5 2.5zm5-5c1.4 0 2.5-1.1 2.5-2.5s-1.1-2.5-2.5-2.5-2.5 1.1-2.5 2.5 1.1 2.5 2.5 2.5zm-10 34.9c-1.4 0-2.5 1.1-2.5 2.5s1.1 2.5 2.5 2.5 2.5-1.1 2.5-2.5-1.1-2.5-2.5-2.5zm10-5c1.4 0 2.5-1.1 2.5-2.5s-1.1-2.5-2.5-2.5-2.5 1.1-2.5 2.5 1.1 2.5 2.5 2.5zm-10 0c1.4 0 2.5-1.1 2.5-2.5s-1.1-2.5-2.5-2.5-2.5 1.1-2.5 2.5 1.2 2.5 2.5 2.5zm-5 5c1.4 0 2.5-1.1 2.5-2.5s-1.1-2.5-2.5-2.5-2.5 1.1-2.5 2.5c0.1 1.4 1.2 2.5 2.5 2.5zm10 0c1.4 0 2.5-1.1 2.5-2.5s-1.1-2.5-2.5-2.5-2.5 1.1-2.5 2.5 1.2 2.5 2.5 2.5zm-10-14.9c-1.4 0-2.5 1.1-2.5 2.5s1.1 2.5 2.5 2.5 2.5-1.1 2.5-2.5-1.1-2.5-2.5-2.5zm10 0c-1.4 0-2.5 1.1-2.5 2.5s1.1 2.5 2.5 2.5 2.5-1.1 2.5-2.5-1.1-2.5-2.5-2.5zm-14.9 14.9c-0.5 0-1 0.2-1.4 0.4-0.7 0.4-1.1 1.2-1.1 2.1s0.4 1.6 1.1 2.1c0.1 0.1 0.2 0.1 0.3 0.2 0.4 0.1 0.7 0.2 1.1 0.3 1.4 0 2.5-1.1 2.5-2.5 0-1.5-1.2-2.6-2.5-2.6zm19.9-14.9c0.7 0 1.3-0.3 1.8-0.7 0.5-0.5 0.7-1.1 0.7-1.8 0-1.4-1.1-2.5-2.5-2.5s-2.5 1.1-2.5 2.5c0 0.7 0.3 1.3 0.7 1.8 0.5 0.4 1.1 0.7 1.8 0.7zm-10 0c0.7 0 1.3-0.3 1.8-0.7 0.5-0.5 0.7-1.1 0.7-1.8 0-1.4-1.1-2.5-2.5-2.5s-2.5 1.1-2.5 2.5c0 0.7 0.3 1.3 0.7 1.8 0.5 0.4 1.1 0.7 1.8 0.7zm-5 19.9c-0.7 0-1.3 0.3-1.8 0.7 1.4 0.3 2.7 0.6 4.1 0.9-0.3-0.9-1.2-1.6-2.3-1.6zm10 0c-1.4 0-2.5 1.1-2.5 2.5v0.4c1.5 0.4 3 0.7 4.5 1.1 0.3-0.4 0.5-0.9 0.5-1.5 0-1.4-1.1-2.5-2.5-2.5zm-16.3-70.3c0.4 0.3 0.9 0.4 1.4 0.4 1.4 0 2.5-1.1 2.5-2.5 0-0.9-0.4-1.6-1.1-2.1-0.5 0.2-0.9 0.4-1.4 0.7-0.8 0.4-1.7 0.8-2.5 1.2v0.2c0 0.9 0.4 1.7 1.1 2.1zm-11.3 3.7c-0.8 0.6-1.6 1.1-2.4 1.7h0.1c1.1 0.1 2-0.7 2.3-1.7zm7.7 1.8c1.4 0 2.5-1.1 2.5-2.5s-1.1-2.5-2.5-2.5-2.5 1.1-2.5 2.5c0 1.3 1.1 2.5 2.5 2.5zm3.6 14.5c0.4 0.3 0.9 0.4 1.4 0.4 1.4 0 2.5-1.1 2.5-2.5s-1.1-2.5-2.5-2.5c-0.5 0-1 0.2-1.4 0.4-0.7 0.4-1.1 1.2-1.1 2.1s0.4 1.6 1.1 2.1zm-8.6-4.6c-1.4 0-2.5 1.1-2.5 2.5s1.1 2.5 2.5 2.5 2.5-1.1 2.5-2.5-1.1-2.5-2.5-2.5zm-5 5c-1.4 0-2.5 1.1-2.5 2.5s1.1 2.5 2.5 2.5 2.5-1.1 2.5-2.5-1.1-2.5-2.5-2.5zm10 5c1.4 0 2.5-1.1 2.5-2.5s-1.1-2.5-2.5-2.5-2.5 1.1-2.5 2.5 1.1 2.5 2.5 2.5zm-10-10c1.4 0 2.5-1.1 2.5-2.5s-1.1-2.5-2.5-2.5-2.5 1.1-2.5 2.5 1.1 2.5 2.5 2.5zm10-5c-1.4 0-2.5 1.1-2.5 2.5s1.1 2.5 2.5 2.5 2.5-1.1 2.5-2.5c0-1.3-1.1-2.5-2.5-2.5zm-15 15c-1.4 0-2.5 1.1-2.5 2.5s1.1 2.5 2.5 2.5 2.5-1.1 2.5-2.5c0-1.4-1.1-2.5-2.5-2.5zm10-15c1.4 0 2.5-1.1 2.5-2.5s-1.1-2.5-2.5-2.5-2.5 1.1-2.5 2.5 1.1 2.5 2.5 2.5zm-7.5-2.5c0-0.2 0-0.4-0.1-0.6-0.3 0.2-0.5 0.4-0.8 0.6-0.6 0.5-1.1 0.9-1.6 1.4-0.3 0.3-0.7 0.6-1 0.9 0.3 0.1 0.7 0.2 1 0.2 1.4 0 2.5-1.1 2.5-2.5zm16.1 32.1c0.4 0.3 0.9 0.4 1.4 0.4 1.4 0 2.5-1.1 2.5-2.5s-1.1-2.5-2.5-2.5c-0.5 0-1 0.2-1.4 0.4-0.7 0.4-1.1 1.2-1.1 2.1 0 0.8 0.4 1.6 1.1 2.1zm-8.6 0.4c1.4 0 2.5-1.1 2.5-2.5s-1.1-2.5-2.5-2.5-2.5 1.1-2.5 2.5 1.1 2.5 2.5 2.5zm-5 0c-1.4 0-2.5 1.1-2.5 2.5s1.1 2.5 2.5 2.5 2.5-1.1 2.5-2.5-1.1-2.5-2.5-2.5zm10 5c1.4 0 2.5-1.1 2.5-2.5s-1.1-2.5-2.5-2.5-2.5 1.1-2.5 2.5 1.1 2.5 2.5 2.5zm-10-15c-1.4 0-2.5 1.1-2.5 2.5s1.1 2.5 2.5 2.5 2.5-1.1 2.5-2.5-1.1-2.5-2.5-2.5zm10 0c-1.4 0-2.5 1.1-2.5 2.5s1.1 2.5 2.5 2.5 2.5-1.1 2.5-2.5-1.1-2.5-2.5-2.5zm-5 0c1.4 0 2.5-1.1 2.5-2.5s-1.1-2.5-2.5-2.5-2.5 1.1-2.5 2.5 1.1 2.5 2.5 2.5zm0 34.9c-1.1 0-2 0.7-2.3 1.7 0.9 0.3 1.7 0.5 2.6 0.8 0.7 0.2 1.4 0.4 2.2 0.6 0-0.2 0.1-0.4 0.1-0.6-0.1-1.4-1.2-2.5-2.6-2.5zm8.6-5.4c0.4 0.3 0.9 0.4 1.4 0.4 1.4 0 2.5-1.1 2.5-2.5s-1.1-2.5-2.5-2.5c-0.5 0-1 0.2-1.4 0.4-0.7 0.4-1.1 1.2-1.1 2.1s0.4 1.7 1.1 2.1zm-8.6 0.4c1.4 0 2.5-1.1 2.5-2.5s-1.1-2.5-2.5-2.5-2.5 1.1-2.5 2.5 1.1 2.5 2.5 2.5zm-5 0c-1.4 0-2.5 1.1-2.5 2.5s1.1 2.5 2.5 2.5 2.5-1.1 2.5-2.5c0-1.3-1.1-2.5-2.5-2.5zm10 0c-1.4 0-2.5 1.1-2.5 2.5s1.1 2.5 2.5 2.5 2.5-1.1 2.5-2.5c0-1.3-1.1-2.5-2.5-2.5zm-10-5c1.4 0 2.5-1.1 2.5-2.5s-1.1-2.5-2.5-2.5-2.5 1.1-2.5 2.5 1.1 2.5 2.5 2.5zm10 0c1.4 0 2.5-1.1 2.5-2.5s-1.1-2.5-2.5-2.5-2.5 1.1-2.5 2.5 1.1 2.5 2.5 2.5zm-15 0c-1.4 0-2.5 1.1-2.5 2.5s1.1 2.5 2.5 2.5 2.5-1.1 2.5-2.5c0-1.3-1.1-2.5-2.5-2.5zm18.6-5.4c0.4 0.3 0.9 0.4 1.4 0.4 0.7 0 1.3-0.3 1.8-0.7 0.5-0.5 0.7-1.1 0.7-1.8 0-1.4-1.1-2.5-2.5-2.5-0.5 0-1 0.2-1.4 0.4-0.7 0.4-1.1 1.2-1.1 2.1 0 0.7 0.3 1.3 0.7 1.8 0.1 0.1 0.2 0.2 0.4 0.3zm-8.6 0.5c0.7 0 1.3-0.3 1.8-0.7 0.5-0.5 0.7-1.1 0.7-1.8 0-1.4-1.1-2.5-2.5-2.5s-2.5 1.1-2.5 2.5c0 0.7 0.3 1.3 0.7 1.8 0.5 0.4 1.1 0.7 1.8 0.7zm-10-30c1.4 0 2.5-1.1 2.5-2.5s-1.1-2.5-2.5-2.5-2.5 1.1-2.5 2.5c0 1.4 1.1 2.5 2.5 2.5zm-7.5-2.5c0-0.2 0-0.5-0.1-0.7-0.8 1-1.6 2.1-2.3 3.2 1.4-0.1 2.4-1.1 2.4-2.5zm2.5 7.5c1.4 0 2.5-1.1 2.5-2.5s-1.1-2.5-2.5-2.5-2.5 1.1-2.5 2.5c0 1.4 1.1 2.5 2.5 2.5zm2.5-12.5c0-0.4-0.1-0.8-0.3-1.1-1.1 1.1-2.2 2.2-3.2 3.4 0.3 0.1 0.6 0.2 1 0.2 1.4 0 2.5-1.1 2.5-2.5zm2.5 27.5c1.4 0 2.5-1.1 2.5-2.5s-1.1-2.5-2.5-2.5-2.5 1.1-2.5 2.5c0 1.4 1.1 2.5 2.5 2.5zm-10-5c-1.4 0-2.5 1.1-2.5 2.5s1.1 2.5 2.5 2.5 2.5-1.1 2.5-2.5-1.1-2.5-2.5-2.5zm-2.5 7.5c0-1.4-1.1-2.5-2.5-2.5-0.2 0-0.4 0-0.6 0.1 0.1 1.7 0.2 3.4 0.5 4.9h0.2c1.3 0 2.4-1.1 2.4-2.5zm7.5 2.5c1.4 0 2.5-1.1 2.5-2.5s-1.1-2.5-2.5-2.5-2.5 1.1-2.5 2.5c0 1.4 1.1 2.5 2.5 2.5zm-7.5-12.5c0-1.2-0.8-2.2-2-2.4-0.4 1.6-0.8 3.2-1 4.9h0.4c1.5 0 2.6-1.1 2.6-2.5zm7.5-2.5c-1.4 0-2.5 1.1-2.5 2.5s1.1 2.5 2.5 2.5 2.5-1.1 2.5-2.5c0-1.4-1.1-2.5-2.5-2.5zm-5 0c1.4 0 2.5-1.1 2.5-2.5s-1.1-2.5-2.5-2.5-2.5 1.1-2.5 2.5 1.1 2.5 2.5 2.5zm0 24.9c-0.3 0-0.6 0.1-0.9 0.2 0.9 1.3 2 2.4 3.1 3.4 0.2-0.3 0.3-0.7 0.3-1.1 0-1.3-1.1-2.5-2.5-2.5zm5 5c-0.3 0-0.6 0.1-0.9 0.2 1.1 0.8 2.2 1.5 3.4 2.2-0.1-1.3-1.1-2.4-2.5-2.4zm-8.6-9.5c0.3 0.8 0.7 1.5 1.1 2.2v-0.2c0-0.8-0.4-1.6-1.1-2zm11.1 2c0-1.4-1.1-2.5-2.5-2.5s-2.5 1.1-2.5 2.5c0 1.4 1.1 2.5 2.5 2.5s2.5-1.1 2.5-2.5zm2.5-2.4c0.7 0 1.3-0.3 1.8-0.7 0.5-0.5 0.7-1.1 0.7-1.8 0-1.4-1.1-2.5-2.5-2.5s-2.5 1.1-2.5 2.5c0 0.7 0.3 1.3 0.7 1.8 0.5 0.4 1.1 0.7 1.8 0.7zm-8.2-0.8c0.5-0.5 0.7-1.1 0.7-1.8 0-1.4-1.1-2.5-2.5-2.5s-2.5 1.1-2.5 2.5c0 0.7 0.3 1.3 0.7 1.8 0.5 0.5 1.1 0.7 1.8 0.7 0.7 0.1 1.3-0.2 1.8-0.7z" fill="url(#SVGID_2_)"/>
	<linearGradient gradientUnits="userSpaceOnUse" id="SVGID_3_" x1="119.63" x2="119.63" y2="146.47">
		<stop offset="0" stop-color="#0E37F1"/>
		<stop offset="1" stop-color="#FE19AA"/>
	</linearGradient>
	<path d="m15.1 69.9c-3.8 29.5 49.9 19.9 73.1 36.4s62.7 53 98 35.6-0.6-49.3 16.2-65.6 28.4-22.6 18-29.6c-10.4-7-19.1 15.7-41.2-6.4s-32.5-51.6-55.1-36 26.6 31.3-4.4 42.4-97.1-34.8-104.6 23.2z" fill="url(#SVGID_3_)"/>
		<linearGradient gradientTransform="matrix(.6923 .4735 -.3748 .548 72.408 -569.57)" gradientUnits="userSpaceOnUse" id="SVGID_4_" x1="611.56" x2="611.56" y1="823.82" y2="564.29">
		<stop offset="0" stop-color="#0E37F1"/>
		<stop offset="1" stop-color="#FE19AA"/>
	</linearGradient>
	<path d="m187 171.5c-1.1-0.8-1.4-2.3-0.6-3.4l94.5-138.2c0.8-1.1 2.3-1.4 3.4-0.6s1.4 2.3 0.6 3.4l-94.5 138.2c-0.8 1.1-2.3 1.3-3.4 0.6z" fill="url(#SVGID_4_)"/>
		<linearGradient gradientTransform="matrix(6.1232e-17 1 -1 6.1232e-17 1319.6 870.25)" gradientUnits="userSpaceOnUse" id="SVGID_5_" x1="-847.59" x2="-814.48" y1="1231.4" y2="1231.4">
		<stop offset="0" stop-color="#0E37F1"/>
		<stop offset="1" stop-color="#FE19AA"/>
	</linearGradient>
	<path d="m89.9 54.1v-13.2h13.1c0.9 0 1.7-0.8 1.7-1.7s-0.8-1.7-1.7-1.7h-13.1v-13.1c0-0.9-0.8-1.7-1.7-1.7s-1.7 0.8-1.7 1.7v13.2h-13.2c-0.9 0-1.7 0.8-1.7 1.7s0.8 1.7 1.7 1.7h13.2v13.2c0 0.9 0.8 1.7 1.7 1.7 0.9-0.1 1.7-0.9 1.7-1.8z" fill="url(#SVGID_5_)"/>
		<linearGradient gradientTransform="matrix(6.1232e-17 1 -1 6.1232e-17 1319.6 870.25)" gradientUnits="userSpaceOnUse" id="SVGID_6_" x1="-673.44" x2="-649.99" y1="1140.6" y2="1140.6">
		<stop offset="0" stop-color="#0E37F1"/>
		<stop offset="1" stop-color="#FE19AA"/>
	</linearGradient>
	<path d="m180.2 219v-9.3h9.3c0.7 0 1.2-0.5 1.2-1.2s-0.5-1.2-1.2-1.2h-9.3v-9.3c0-0.7-0.5-1.2-1.2-1.2s-1.2 0.5-1.2 1.2v9.3h-9.3c-0.7 0-1.2 0.5-1.2 1.2s0.5 1.2 1.2 1.2h9.3v9.3c0 0.7 0.5 1.2 1.2 1.2 0.7 0.1 1.2-0.5 1.2-1.2z" fill="url(#SVGID_6_)"/>
</g>
</svg>