<?xml version="1.0" encoding="UTF-8"?><!-- Generator: Adobe Illustrator 23.0.4, SVG Export Plug-In . SVG Version: 6.00 Build 0)  --><svg xmlns="http://www.w3.org/2000/svg" enable-background="new 0 0 247.4 69.2" id="Layer_1" version="1.1" viewBox="0 0 247.4 69.2" x="0px" xml:space="preserve" y="0px">
<linearGradient gradientTransform="matrix(6.1232e-17 -1 1 6.1232e-17 -888.53 2340.3)" gradientUnits="userSpaceOnUse" id="SVGID_1_" x1="2305.7" x2="2305.7" y1="1150" y2="880">
	<stop offset=".4436" stop-color="#00FFB8"/>
	<stop offset="1" stop-color="#861EFF"/>
</linearGradient>
<path d="m228.4 45.6c0 5.2 4.2 9.5 9.5 9.5 5.2 0 9.5-4.2 9.5-9.5s-4.2-9.5-9.5-9.5c-5.2 0-9.5 4.2-9.5 9.5zm-23.4-26.6c0 1.8 1.5 3.3 3.3 3.3s3.3-1.5 3.3-3.3c0-1.8-1.5-3.3-3.3-3.3s-3.3 1.4-3.3 3.3zm-199.4 6.7c-3.1 0-5.6-2.5-5.6-5.6s2.5-5.6 5.6-5.6 5.6 2.5 5.6 5.6-2.5 5.6-5.6 5.6zm63.6-19.8c0 3.2 2.6 5.9 5.9 5.9h-43.6c-3.9 0-7 3.1-7 7s3.1 7 7 7h62.5c-0.2 0-0.4 0-0.7 0.1h-22.5c-3.7 0-6.7 2.8-6.7 6.2s3 6.2 6.7 6.2h-28.2c-4.5 0-8.1 3.4-8.1 7.5s3.6 7.5 8.1 7.5h38.5c-2.9 0-5.3 2.2-5.3 4.9s2.4 4.9 5.3 4.9h-36c-1.8 0-3.3 1.4-3.3 3.1s1.5 3.1 3.3 3.1h167.1c1.8 0 3.3-1.5 3.3-3.3s-1.5-3.3-3.3-3.3h-36c2.9 0 5.3-2.4 5.3-5.3s-2.4-5.3-5.3-5.3h38.5c4.5 0 8.1-3.6 8.1-8.1s-3.6-8.1-8.1-8.1h-28.2c3.7 0 6.7-3 6.7-6.7s-3-6.7-6.7-6.7h-42.7c2.3 0 4.2-1.9 4.2-4.2s-1.9-4.2-4.2-4.2h30.7c3.9 0 7-3.1 7-7s-3.1-7-7-7h-99.4c-3.3-0.1-5.9 2.5-5.9 5.8z" fill="url(#SVGID_1_)"/>
</svg>