<svg width="1627" height="943" viewBox="0 0 1627 943" fill="none" xmlns="http://www.w3.org/2000/svg">
<rect x="196" y="60" width="1232" height="772" fill="white" fill-opacity="0.6"/>
<path d="M195.5 832V832.5H196H1428H1428.5V832V59.9999V59.4999H1428H196H195.5V59.9999V832ZM1460.83 866.667C1460.83 886.273 1444.94 902.167 1425.33 902.167H200C180.393 902.167 164.5 886.273 164.5 866.667V41.3333C164.5 21.7267 180.393 5.83325 200 5.83325H1425.33C1444.94 5.83325 1460.83 21.7267 1460.83 41.3333V866.667Z" fill="#F2F2F2" stroke="#E0E0E0"/>
<path d="M163.5 41.3333C163.5 21.2065 179.873 4.83331 200 4.83331H1425.33C1445.46 4.83331 1461.83 21.2065 1461.83 41.3333V866.667C1461.83 886.793 1445.46 903.167 1425.33 903.167H200C179.873 903.167 163.5 886.793 163.5 866.667V41.3333ZM200 907.5H1425.33C1447.84 907.5 1466.17 889.183 1466.17 866.667V41.3333C1466.17 18.8188 1447.84 0.499939 1425.33 0.499939H200C177.486 0.499939 159.167 18.8187 159.167 41.3333V866.667C159.167 889.183 177.486 907.5 200 907.5Z" fill="white" stroke="#E0E0E0"/>
<path d="M1618.67 909.82H8V881.834H1618.67V909.82Z" fill="url(#paint0_linear)"/>
<g filter="url(#filter0_f)">
<path d="M1522.53 927H101.411L8 935H1619L1522.53 927Z" fill="url(#paint1_linear)"/>
</g>
<g filter="url(#filter1_i)">
<path d="M1528.34 927.625C1524.27 928.429 1520.12 928.833 1515.97 928.833H107.84C103.552 928.833 99.2747 928.402 95.0726 927.547L8 909.82H1618.67L1528.34 927.625Z" fill="#E0E0E0"/>
</g>
<g filter="url(#filter2_ii)">
<path d="M703.977 902.667H923.185C935.393 902.667 945.291 892.769 945.291 880.56H681.872C681.872 892.769 691.769 902.667 703.977 902.667Z" fill="url(#paint2_linear)"/>
</g>
<defs>
<filter id="filter0_f" x="0" y="919" width="1627" height="24" filterUnits="userSpaceOnUse" color-interpolation-filters="sRGB">
<feFlood flood-opacity="0" result="BackgroundImageFix"/>
<feBlend mode="normal" in="SourceGraphic" in2="BackgroundImageFix" result="shape"/>
<feGaussianBlur stdDeviation="4" result="effect1_foregroundBlur"/>
</filter>
<filter id="filter1_i" x="8" y="905.82" width="1610.67" height="23.0136" filterUnits="userSpaceOnUse" color-interpolation-filters="sRGB">
<feFlood flood-opacity="0" result="BackgroundImageFix"/>
<feBlend mode="normal" in="SourceGraphic" in2="BackgroundImageFix" result="shape"/>
<feColorMatrix in="SourceAlpha" type="matrix" values="0 0 0 0 0 0 0 0 0 0 0 0 0 0 0 0 0 0 127 0" result="hardAlpha"/>
<feOffset dy="-4"/>
<feGaussianBlur stdDeviation="4"/>
<feComposite in2="hardAlpha" operator="arithmetic" k2="-1" k3="1"/>
<feColorMatrix type="matrix" values="0 0 0 0 0.768627 0 0 0 0 0.768627 0 0 0 0 0.768627 0 0 0 1 0"/>
<feBlend mode="normal" in2="shape" result="effect1_innerShadow"/>
</filter>
<filter id="filter2_ii" x="681.872" y="878.56" width="263.419" height="26.1068" filterUnits="userSpaceOnUse" color-interpolation-filters="sRGB">
<feFlood flood-opacity="0" result="BackgroundImageFix"/>
<feBlend mode="normal" in="SourceGraphic" in2="BackgroundImageFix" result="shape"/>
<feColorMatrix in="SourceAlpha" type="matrix" values="0 0 0 0 0 0 0 0 0 0 0 0 0 0 0 0 0 0 127 0" result="hardAlpha"/>
<feOffset dy="2"/>
<feGaussianBlur stdDeviation="1"/>
<feComposite in2="hardAlpha" operator="arithmetic" k2="-1" k3="1"/>
<feColorMatrix type="matrix" values="0 0 0 0 0.95 0 0 0 0 0.95 0 0 0 0 0.95 0 0 0 1 0"/>
<feBlend mode="normal" in2="shape" result="effect1_innerShadow"/>
<feColorMatrix in="SourceAlpha" type="matrix" values="0 0 0 0 0 0 0 0 0 0 0 0 0 0 0 0 0 0 127 0" result="hardAlpha"/>
<feOffset dy="-2"/>
<feGaussianBlur stdDeviation="4"/>
<feComposite in2="hardAlpha" operator="arithmetic" k2="-1" k3="1"/>
<feColorMatrix type="matrix" values="0 0 0 0 0.88 0 0 0 0 0.88 0 0 0 0 0.88 0 0 0 1 0"/>
<feBlend mode="normal" in2="effect1_innerShadow" result="effect2_innerShadow"/>
</filter>
<linearGradient id="paint0_linear" x1="8.0013" y1="895.828" x2="1618.67" y2="895.828" gradientUnits="userSpaceOnUse">
<stop stop-color="#E0E0E0"/>
<stop offset="0.0107527" stop-color="#F2F2F2"/>
<stop offset="0.268817" stop-color="white"/>
<stop offset="0.817204" stop-color="white"/>
<stop offset="0.989247" stop-color="#F2F2F2"/>
<stop offset="1" stop-color="#E0E0E0"/>
</linearGradient>
<linearGradient id="paint1_linear" x1="8" y1="934.998" x2="1619" y2="934.998" gradientUnits="userSpaceOnUse">
<stop stop-color="#9E9E9E"/>
<stop offset="0.09375"/>
<stop offset="0.907647"/>
<stop offset="1" stop-color="#9E9E9E"/>
</linearGradient>
<linearGradient id="paint2_linear" x1="675.663" y1="904.027" x2="953.567" y2="904.027" gradientUnits="userSpaceOnUse">
<stop stop-color="#F2F2F2"/>
<stop offset="0.13176" stop-color="white"/>
<stop offset="0.868285" stop-color="white"/>
<stop offset="1" stop-color="#F2F2F2"/>
</linearGradient>
</defs>
</svg>
